<?xml version="1.0" encoding="UTF-8"?>
<svg width="1294px" height="1185px" viewBox="0 0 1294 1185" version="1.1" xmlns="http://www.w3.org/2000/svg" xmlns:xlink="http://www.w3.org/1999/xlink">
    <!-- Generator: Sketch 52.3 (67297) - http://www.bohemiancoding.com/sketch -->
    <title>Group Copy</title>
    <desc>Created with Sketch.</desc>
    <g id="Page-1" stroke="none" stroke-width="1" fill="none" fill-rule="evenodd">
        <g id="color_logo_with_background" transform="translate(-3224.000000, -578.000000)" fill="#2D8733">
            <g id="Group-Copy" transform="translate(3224.000000, 578.000000)">
                <g id="SvgjsG1112" transform="translate(0.075734, 0.104498)">
                    <g id="Group">
                        <g id="Rectangle">
                            <path d="M1169.78422,79.0422104 C1165.94293,73.2140451 1158.90792,70.3588328 1152.09367,71.8305917 C1145.26471,73.3170682 1140.0694,78.8655993 1139.00974,85.753431 C1137.02286,98.7049095 1135.87489,111.406189 1134.75635,123.695376 C1126.47035,215.459544 1118.61116,302.131427 748.463792,467.983939 C745.814626,469.161346 743.22433,470.397623 740.604599,471.604466 C739.088688,437.5774 734.997198,402.799736 728.182954,368.625494 C707.342848,264.145329 652.976074,116.174688 512.320074,4.4534686 C506.845131,0.111779805 499.28029,-0.418053404 493.260796,3.12888558 C487.241302,6.67582456 484.032868,13.5489387 485.195557,20.4367704 C486.88808,30.5771893 489.139871,40.2760806 491.303357,49.6511849 C507.183636,118.17628 522.166141,182.904237 291.23245,393.351044 C152.342561,519.922311 129.000465,637.398107 133.886705,713.664654 C138.390287,784.132471 170.150844,849.09591 219.911013,891.27652 C154.196978,952.119034 82.4487305,1004.54309 9.02267821,1043.32393 C0.780828287,1047.68034 -2.36873579,1057.87963 1.9876706,1066.1362 C5.01949396,1071.86134 10.8623769,1075.11393 16.9260236,1075.11393 C19.5751896,1075.11393 22.283226,1074.49579 24.7852162,1073.15649 C260.958369,948.395484 480.647822,686.481267 547.171325,450.337549 C549.702751,441.374538 544.478007,432.058304 535.514995,429.526878 C526.551983,426.995453 517.235749,432.220197 514.704324,441.183209 C473.686403,586.813754 372.135038,742.702458 244.53354,867.831401 C200.071703,831.640849 171.57845,774.212816 167.575266,711.501169 C163.174707,642.608134 185.000892,535.817307 313.985843,418.28264 C536.192004,215.798049 542.608873,133.055763 528.936232,63.5887418 C634.019819,163.933265 677.363119,286.192278 695.112531,375.189539 C717.365526,486.704712 709.653509,603.945027 675.479267,673.927164 C615.402069,796.922056 533.439815,872.202525 434.890838,896.457112 C433.580972,896.633723 432.329977,896.942792 431.15257,897.38432 C397.051916,905.302383 360.979105,907.171516 323.169619,902.800392 C315.840259,901.946772 308.437312,900.445578 301.152105,898.311528 C292.203811,895.677079 282.828707,900.7988 280.208976,909.732377 C277.589245,918.680671 282.710966,928.055775 291.644543,930.675506 C300.769448,933.354108 310.056247,935.252677 319.284175,936.312343 C333.898741,937.990148 348.292543,938.843768 362.480299,938.843768 C383.084924,938.843768 403.218586,937.033505 422.837132,933.486566 C429.680811,974.636945 444.251224,1013.15288 465.665317,1046.5618 C358.727314,1095.96875 247.550645,1132.24761 139.950351,1150.51214 C130.766576,1152.0722 124.585188,1160.78501 126.145253,1169.96879 C127.543424,1178.21064 134.681454,1184.00937 142.746693,1184.00937 C143.688619,1184.00937 144.630545,1183.93578 145.587188,1183.77389 C483.841539,1126.37529 856.991294,895.014788 1032.85177,633.65984 C1038.06179,625.933105 1036.01605,615.454182 1028.2746,610.244155 C1020.54786,605.034129 1010.06894,607.094591 1004.85891,614.821326 C894.859651,778.274871 705.370691,929.718863 496.425078,1031.97667 C475.805736,1001.01086 461.912331,964.761443 455.745662,925.774549 C484.091738,917.488546 511.275125,905.331818 537.13393,889.26021 C604.511053,847.344517 661.232641,779.893806 705.753348,688.777211 C728.27126,642.637569 740.383836,578.380575 741.178585,508.604485 C748.125288,505.263592 755.13086,501.966852 762.254173,498.787853 C937.025544,420.475561 1045.92099,353.304484 1104.98267,287.384402 C1154.58095,232.016832 1162.71977,184.802806 1167.14977,139.590372 C1263.24091,310.284971 1267.71505,484.541227 1253.14464,604.592601 C1235.35108,751.091484 1178.15852,892.659974 1107.45523,965.276558 C938.791655,1138.48787 755.822587,1186.68797 578.343179,1104.711 C569.453755,1100.60479 560.75566,1095.63025 552.469657,1089.91982 C544.801793,1084.62149 534.293435,1086.54949 528.995103,1094.23207 C523.711488,1101.89994 525.639492,1112.4083 533.307356,1117.70663 C543.168141,1124.49144 553.558759,1130.42263 564.184858,1135.3383 C624.482821,1163.1987 685.78158,1177.15097 747.389408,1177.15097 C780.459831,1177.15097 813.618559,1173.13307 846.747852,1165.08255 C945.208524,1141.12231 1041.06418,1081.82515 1131.62151,988.824701 C1207.16689,911.248289 1268.00941,762.04137 1286.64187,608.669373 C1303.11086,473.120377 1296.19359,271.253925 1169.78422,79.0422104 Z" id="Mask"></path>
                        </g>
                    </g>
                </g>
            </g>
        </g>
    </g>
</svg>