<?xml version="1.0" encoding="UTF-8"?>
<svg width="1294px" height="1184px" viewBox="0 0 1294 1184" version="1.1" xmlns="http://www.w3.org/2000/svg" xmlns:xlink="http://www.w3.org/1999/xlink">
    <!-- Generator: Sketch 52.3 (67297) - http://www.bohemiancoding.com/sketch -->
    <title>icon</title>
    <desc>Created with Sketch.</desc>
    <g id="Page-1" stroke="none" stroke-width="1" fill="none" fill-rule="evenodd">
        <g id="icon">
            <path d="M231.873143,903.284617 C168.628831,820.736858 140.593568,752.641986 147.767354,699 C158.528032,618.537022 199.574246,505.597741 221.701568,489.772464 C243.82889,473.947187 340.349832,360.153175 374,335.73594 C407.650168,311.318705 492.523661,201.15411 505.440302,163.010153 C518.356943,124.866196 516.75355,45.4007014 505.440302,22.7003507 C494.127055,-4.86721774e-13 588.34919,98.7650137 588.34919,98.7650137 C656.174844,203.611992 690.08767,265.312075 690.08767,283.865262 L725.533485,489.772464 C788.636136,466.660713 831.34645,449.895657 853.664427,439.477297 C887.141392,423.849756 1003.98497,361.581979 1030.34707,335.73594 C1056.70918,309.889901 1139.18492,230.265986 1139.18492,206.282495 C1139.18492,190.2935 1146.0419,154.45434 1159.75587,98.7650137 C1204.01902,165.863508 1226.15059,206.208078 1226.15059,219.798723 C1226.15059,240.18469 1286.84002,416.686601 1278.02765,489.772464 C1269.21527,562.858326 1255.51761,692.370352 1240.8341,753.224867 C1226.15059,814.079381 1168.50978,930.667673 1129.87662,970.067697 C1091.24345,1009.46772 923.320744,1136.80249 864.522919,1144.36477 C805.725094,1151.92704 698.743415,1165.16274 636.041894,1144.36477 C573.340373,1123.5668 499.926181,1106.01872 477.809248,1061.23052 C463.064626,1031.37172 453.12433,1000.98411 447.988359,970.067697 L438.90525,914.012036 L385.841776,917.572441 L314.490889,918.629944 L288.559305,927.32019 L231.873143,903.284617 Z" id="Path-2" stroke="#979797" fill="#87CA43"></path>
            <path d="M1169.75641,78.2500832 C1165.91512,72.4219179 1158.88011,69.5667056 1152.06587,71.0384645 C1145.23691,72.524941 1140.0416,78.0734721 1138.98193,84.9613038 C1136.99506,97.9127823 1135.84709,110.614062 1134.72855,122.903249 C1126.44255,214.667417 1118.58335,301.339299 748.435988,467.191812 C745.786822,468.369219 743.196526,469.605496 740.576795,470.812338 C739.060883,436.785272 734.969394,402.007609 728.15515,367.833367 C707.315044,263.353202 652.948269,115.382561 512.29227,3.6613414 C506.817327,-0.680347399 499.252486,-1.21018061 493.232992,2.33675838 C487.213498,5.88369736 484.005064,12.7568115 485.167753,19.6446432 C486.860276,29.7850621 489.112067,39.4839534 491.275553,48.8590577 C507.155831,117.384153 522.138337,182.11211 291.204646,392.558917 C152.314757,519.130184 128.972661,636.60598 133.8589,712.872527 C138.362482,783.340344 170.12304,848.303782 219.883209,890.484393 C154.169173,951.326906 82.4209262,1003.75096 8.9948739,1042.53181 C0.75302398,1046.88821 -2.3965401,1057.0875 1.95986629,1065.34407 C4.99168965,1071.06921 10.8345725,1074.3218 16.8982193,1074.3218 C19.5473853,1074.3218 22.2554217,1073.70366 24.7574119,1072.36436 C260.930565,947.603356 480.620018,685.68914 547.143521,449.545422 C549.674946,440.58241 544.450202,431.266176 535.48719,428.734751 C526.524179,426.203326 517.207945,431.42807 514.676519,440.391082 C473.658598,586.021626 372.107233,741.910331 244.505735,867.039273 C200.043899,830.848722 171.550646,773.420689 167.547462,710.709042 C163.146903,641.816007 184.973087,535.02518 313.958039,417.490513 C536.1642,215.005922 542.581068,132.263635 528.908428,62.7966146 C633.992015,163.141137 677.335315,285.40015 695.084727,374.397412 C717.337722,485.912585 709.625705,603.1529 675.451463,673.135036 C615.374264,796.129929 533.41201,871.410397 434.863033,895.664984 C433.553168,895.841595 432.302173,896.150665 431.124766,896.592192 C397.024112,904.510255 360.951301,906.379389 323.141814,902.008265 C315.812455,901.154645 308.409507,899.653451 301.124301,897.519401 C292.176007,894.884952 282.800902,900.006673 280.181172,908.94025 C277.561441,917.888544 282.683162,927.263648 291.616738,929.883379 C300.741644,932.56198 310.028442,934.460549 319.256371,935.520216 C333.870937,937.198021 348.264739,938.051641 362.452495,938.051641 C383.05712,938.051641 403.190782,936.241378 422.809328,932.694439 C429.653007,973.844818 444.22342,1012.36075 465.637512,1045.76968 C358.69951,1095.17662 247.522841,1131.45548 139.922547,1149.72001 C130.738771,1151.28007 124.557384,1159.99289 126.117448,1169.17666 C127.515619,1177.41851 134.65365,1183.21724 142.718889,1183.21724 C143.660815,1183.21724 144.60274,1183.14365 145.559384,1182.98176 C483.813735,1125.58316 856.96349,894.222661 1032.82396,632.867713 C1038.03399,625.140978 1035.98824,614.662055 1028.24679,609.452028 C1020.52006,604.242002 1010.04113,606.302464 1004.83111,614.029198 C894.831847,777.482744 705.342887,928.926736 496.397274,1031.18455 C475.777931,1000.21874 461.884527,963.969316 455.717857,924.982422 C484.063934,916.696419 511.247321,904.539691 537.106125,888.468083 C604.483248,846.552389 661.204837,779.101678 705.725544,687.985084 C728.243455,641.845442 740.356031,577.588448 741.150781,507.812358 C748.097483,504.471465 755.103056,501.174725 762.226369,497.995726 C936.99774,419.683434 1045.89318,352.512357 1104.95487,286.592275 C1154.55314,231.224705 1162.69197,184.010679 1167.12196,138.798245 C1263.2131,309.492844 1267.68725,483.749099 1253.11684,603.800474 C1235.32327,750.299356 1178.13072,891.867846 1107.42742,964.484431 C938.763851,1137.69574 755.794782,1185.89584 578.315375,1103.91887 C569.425951,1099.81266 560.727856,1094.83812 552.441853,1089.12769 C544.773989,1083.82936 534.265631,1085.75737 528.967298,1093.43995 C523.683684,1101.10781 525.611688,1111.61617 533.279552,1116.9145 C543.140337,1123.69931 553.530955,1129.6305 564.157054,1134.54617 C624.455017,1162.40657 685.753776,1176.35884 747.361604,1176.35884 C780.432027,1176.35884 813.590755,1172.34094 846.720048,1164.29042 C945.180719,1140.33019 1041.03638,1081.03302 1131.5937,988.032574 C1207.13909,910.456161 1267.9816,761.249243 1286.61407,607.877246 C1303.08305,472.32825 1296.16579,270.461797 1169.75641,78.2500832 Z" id="Mask" fill="#2D8733"></path>
        </g>
    </g>
</svg>