<svg id="Capa_1" enable-background="new 0 0 512 512" height="512" viewBox="0 0 512 512" width="512" xmlns="http://www.w3.org/2000/svg"><g><ellipse cx="229.278" cy="190.459" fill="#fff" rx="34.837" ry="34.837" transform="matrix(.995 -.099 .099 .995 -17.652 23.52)"></ellipse>
              <path d="m222.472 299.773h13.613c7.404 0 13.406-6.002 13.406-13.406v-21.643c6.369-1.729 12.404-4.257 18.002-7.467l15.311 15.311c5.235 5.235 13.724 5.235 18.959 0l9.626-9.626c5.235-5.235 5.235-13.724 0-18.959l-15.311-15.311c3.209-5.598 5.738-11.634 7.467-18.002h21.643c7.404 0 13.406-6.002 13.406-13.406v-13.613c0-7.404-6.002-13.406-13.406-13.406h-21.643c-1.729-6.368-4.257-12.403-7.467-18.002l15.311-15.311c5.235-5.235 5.235-13.724 0-18.959l-9.626-9.626c-5.235-5.235-13.724-5.235-18.959 0l-15.311 15.311c-5.598-3.21-11.633-5.738-18.002-7.467v-21.641c0-7.404-6.002-13.406-13.406-13.406h-13.613c-7.404 0-13.406 6.002-13.406 13.406v21.643c-6.368 1.729-12.404 4.257-18.002 7.467l-15.311-15.311c-5.235-5.235-13.724-5.235-18.959 0l-9.626 9.626c-5.235 5.235-5.235 13.724 0 18.959l15.311 15.311c-3.21 5.598-5.738 11.633-7.467 18.002h-21.643c-7.404 0-13.406 6.002-13.406 13.406v13.613c0 7.404 6.002 13.406 13.406 13.406h21.643c1.729 6.368 4.257 12.404 7.467 18.002l-15.311 15.311c-5.235 5.235-5.235 13.724 0 18.959l9.626 9.626c5.235 5.235 13.724 5.235 18.959 0l15.311-15.311c5.598 3.21 11.634 5.738 18.002 7.467v21.643c0 7.402 6.002 13.404 13.406 13.404zm-28.031-109.314c0-19.24 15.597-34.837 34.837-34.837s34.837 15.597 34.837 34.837-15.597 34.837-34.837 34.837c-19.24-.001-34.837-15.598-34.837-34.837z" fill="#9bbecf"></path>
              <path d="m406.559 326.07h-32.471-139.281c-13.751 0-24.899 11.147-24.899 24.899v86.32c0 13.751 11.147 24.899 24.899 24.899h139.281 24.53c20.405 0 36.946-16.541 36.946-36.946v-128.177c0 16.019-12.986 29.005-29.005 29.005zm-126.602 94.173c0 5.626-13.294 5.311-13.294.012v-19.156c0-3.237-2.75-6.414-6.175-6.414-2.813 0-5.746 2.359-5.746 6.414v19.156c0 1.026-.673 1.967-2.016 2.822-4.468 2.843-11.277.617-11.277-2.829v-55.928c0-5.482 13.293-5.25 13.293 0v25.268c1.644-3.534 5.446-6.566 10.635-6.566 8.59 0 14.58 8.977 14.58 18.01zm27.615-7.547c3.742 0 5.66 2.817 5.66 5.832 0 1.616-.486 2.991-1.458 4.127-2.09 2.441-5.326 1.494-7.891 1.705-11.206 0-16.81-4.76-16.81-14.282v-39.465c0-2.63 3.957-3.972 6.604-3.972 2.684 0 6.689 1.217 6.689 3.836v13.059h9.691c2.328 0 3.259 2.858 3.259 5.146 0 2.328-.885 5.146-3.259 5.146h-9.691v15.75c.002 4.362 3.729 2.747 7.206 3.118zm73.242 7.547c0 2.482-3.764 4.117-6.689 4.117-2.68 0-6.604-1.622-6.604-4.104v-19.156c0-4.278-2.823-6.499-5.746-6.499-2.806 0-5.489 2.215-5.489 6.499v19.242c0 5.378-13.293 5.355-13.293 0v-19.156c0-4.191-2.906-6.5-5.832-6.5-2.819 0-5.403 2.144-5.403 6.414v19.156c0 2.502-3.935 4.104-6.689 4.104-2.884 0-6.604-1.432-6.604-4.117v-32.676c0-2.92 3.669-4.031 6.604-4.031 2.75 0 5.832 1.333 5.832 4.063v1.989c4.861-8.656 17.552-9.668 21.441 2.073 7.515-14.855 28.473-9.816 28.473 9.371v19.211zm21.44 0c0 3.384-7.21 5.641-11.407 2.873-3.364-2.215-1.238 1.03-1.887-58.876 0-5.456 13.294-5.288 13.294 0z" fill="#66e4d1"></path>
              <path d="m408.768 269.362h-34.68v56.708h32.471c16.019 0 29.005-12.986 29.005-29.005v-.907c0-14.799-11.997-26.796-26.796-26.796z" fill="#66e4d1"></path>
              <path d="m209.908 437.289v-86.32c0-13.751 11.147-24.899 24.899-24.899h139.281v-56.708c0-80.459 0-218.619 0-224.468 0-19.271-15.622-34.894-34.894-34.894-173.572.612-166.637-1.378-179.569 1.789v22.327 1.447 22.27c0 16.576-13.437 30.013-30.013 30.013h-51.669c-2.611 12.249-.885-4.491-1.378 379.261 0 19.271 15.623 34.894 34.894 34.894h227.735c19.271 0 34.894-15.622 34.894-34.894v-4.919h-139.281c-13.751-.001-24.899-11.148-24.899-24.899zm-18.844-180.031-15.311 15.311c-5.235 5.235-13.724 5.235-18.959 0l-9.626-9.626c-5.235-5.235-5.235-13.724 0-18.959l15.311-15.311c-3.21-5.598-5.738-11.634-7.467-18.002h-21.643c-7.404 0-13.406-6.002-13.406-13.406v-13.613c0-7.404 6.002-13.406 13.406-13.406h21.643c1.729-6.368 4.257-12.403 7.467-18.002l-15.311-15.311c-5.235-5.235-5.235-13.724 0-18.959l9.626-9.626c5.235-5.235 13.724-5.235 18.959 0l15.311 15.311c5.598-3.21 11.634-5.738 18.002-7.467v-21.642c0-7.404 6.002-13.406 13.406-13.406h13.613c7.404 0 13.406 6.002 13.406 13.406v21.643c6.369 1.729 12.404 4.257 18.002 7.467l15.311-15.311c5.235-5.235 13.724-5.235 18.959 0l9.626 9.626c5.235 5.235 5.235 13.724 0 18.959l-15.311 15.311c3.21 5.598 5.738 11.633 7.467 18.002h21.643c7.404 0 13.406 6.002 13.406 13.406v13.613c0 7.404-6.002 13.406-13.406 13.406h-21.643c-1.729 6.368-4.257 12.404-7.467 18.002l15.311 15.311c5.235 5.235 5.235 13.724 0 18.959l-9.626 9.626c-5.235 5.235-13.724 5.235-18.959 0l-15.311-15.311c-5.598 3.21-11.633 5.738-18.002 7.467v21.643c0 7.404-6.002 13.406-13.406 13.406h-13.613c-7.404 0-13.406-6.002-13.406-13.406v-21.643c-6.369-1.731-12.404-4.259-18.002-7.468z" fill="#fff"></path>
              <path d="m159.625 57.832v-22.27-1.447-22.326h-.001c-17.958 4.398-23.361 11.743-59.924 40.685-18.598 14.948-21.512 34.915-21.757 35.371h51.669c16.576 0 30.013-13.437 30.013-30.013z" fill="#aec0c4"></path><g>
              <path d="m274.114 190.458c0-24.723-20.113-44.836-44.837-44.836-24.723 0-44.836 20.114-44.836 44.836 0 24.723 20.113 44.837 44.836 44.837 24.724 0 44.837-20.113 44.837-44.837zm-69.672 0c0-13.695 11.142-24.836 24.836-24.836 13.695 0 24.837 11.142 24.837 24.836 0 13.695-11.142 24.837-24.837 24.837s-24.836-11.141-24.836-24.837z"></path>
              <path d="m222.472 309.773h13.612c12.906 0 23.406-10.5 23.406-23.406v-14.358c2.059-.764 4.089-1.606 6.086-2.525l10.156 10.156c9.126 9.125 23.974 9.125 33.102 0l9.625-9.625c9.126-9.126 9.126-23.975 0-33.102l-10.155-10.156c.919-1.998 1.762-4.028 2.524-6.086h14.358c12.906 0 23.406-10.5 23.406-23.406v-13.613c0-12.906-10.5-23.406-23.406-23.406h-14.358c-.764-2.059-1.605-4.089-2.525-6.086l10.156-10.155c9.126-9.126 9.126-23.976 0-33.101l-9.626-9.626c-9.128-9.126-23.977-9.124-33.101 0l-10.155 10.156c-1.998-.919-4.028-1.762-6.087-2.525v-14.359c0-12.906-10.5-23.406-23.406-23.406h-13.612c-12.906 0-23.406 10.5-23.406 23.406v14.358c-2.059.763-4.089 1.606-6.087 2.525l-10.155-10.156c-9.127-9.126-23.975-9.125-33.102 0l-9.625 9.625c-9.126 9.126-9.126 23.975 0 33.102l10.156 10.155c-.92 1.998-1.762 4.028-2.525 6.086h-14.358c-12.906 0-23.406 10.5-23.406 23.406v13.613c0 12.906 10.5 23.406 23.406 23.406h14.358c.763 2.059 1.605 4.089 2.524 6.086l-10.155 10.156c-9.126 9.126-9.126 23.976 0 33.101l9.625 9.626c9.126 9.126 23.976 9.126 33.102 0l10.156-10.156c1.997.919 4.027 1.761 6.086 2.525v14.358c0 12.907 10.5 23.407 23.406 23.407zm-26.435-61.191c-1.555-.891-3.269-1.324-4.971-1.324-2.588 0-5.148 1.003-7.074 2.929l-15.312 15.311c-1.328 1.328-3.488 1.328-4.816 0l-9.625-9.626c-1.328-1.328-1.328-3.489 0-4.817l15.311-15.311c3.192-3.192 3.85-8.127 1.604-12.044-2.827-4.932-5.012-10.197-6.492-15.649-1.183-4.356-5.137-7.379-9.65-7.379h-21.643c-1.878 0-3.406-1.528-3.406-3.406v-13.613c0-1.878 1.528-3.406 3.406-3.406h21.643c4.514 0 8.468-3.023 9.65-7.379 1.48-5.453 3.665-10.718 6.492-15.648 2.246-3.917 1.589-8.853-1.604-12.045l-15.312-15.312c-1.328-1.328-1.328-3.489 0-4.817l9.625-9.625c1.328-1.328 3.488-1.328 4.816 0l15.312 15.311c3.192 3.193 8.13 3.85 12.045 1.604 4.932-2.828 10.197-5.012 15.648-6.492 4.356-1.183 7.38-5.137 7.38-9.651v-21.643c0-1.878 1.528-3.406 3.406-3.406h13.612c1.878 0 3.406 1.528 3.406 3.406v21.643c0 4.514 3.023 8.468 7.38 9.651 5.451 1.48 10.717 3.664 15.648 6.492 3.918 2.244 8.852 1.588 12.045-1.604l15.312-15.311c1.328-1.328 3.488-1.328 4.816 0l9.625 9.626c1.328 1.328 1.328 3.489 0 4.816l-15.312 15.312c-3.192 3.193-3.85 8.129-1.604 12.045 2.827 4.931 5.012 10.195 6.492 15.648 1.183 4.355 5.137 7.379 9.65 7.379h21.643c1.878 0 3.406 1.528 3.406 3.406v13.613c0 1.878-1.528 3.406-3.406 3.406h-21.643c-4.514 0-8.468 3.023-9.65 7.379-1.48 5.452-3.665 10.717-6.492 15.649-2.245 3.917-1.588 8.852 1.604 12.044l15.311 15.311c1.328 1.328 1.328 3.49 0 4.818l-9.624 9.625c-1.328 1.329-3.491 1.329-4.817 0l-15.312-15.311c-3.192-3.192-8.129-3.849-12.045-1.604-4.931 2.827-10.196 5.011-15.649 6.492-4.355 1.183-7.379 5.137-7.379 9.65v21.643c0 1.878-1.528 3.406-3.406 3.406h-13.612c-1.878 0-3.406-1.528-3.406-3.406v-21.643c0-4.514-3.023-8.467-7.379-9.65-5.45-1.482-10.716-3.666-15.647-6.493z"></path>
              <path d="m265.377 383.022c-5.189 0-8.99 3.032-10.635 6.566v-25.268c0-5.25-13.293-5.482-13.293 0v55.928c0 3.446 6.809 5.672 11.277 2.829 1.343-.855 2.016-1.796 2.016-2.822v-19.156c0-4.055 2.933-6.414 5.746-6.414 3.425 0 6.175 3.177 6.175 6.414v19.156c0 5.299 13.294 5.614 13.294-.012v-19.211c0-9.033-5.99-18.01-14.58-18.01z"></path>
              <path d="m310.06 393.828c2.373 0 3.259-2.818 3.259-5.146 0-2.288-.931-5.146-3.259-5.146h-9.691v-13.059c0-2.619-4.005-3.836-6.689-3.836-2.647 0-6.604 1.342-6.604 3.972v39.465c0 9.522 5.604 14.282 16.81 14.282 2.565-.211 5.801.737 7.891-1.705.972-1.136 1.458-2.511 1.458-4.127 0-3.014-1.918-5.832-5.66-5.832-3.478-.371-7.204 1.244-7.204-3.119v-15.75h9.689z"></path>
              <path d="m352.341 391.661c-3.889-11.74-16.581-10.728-21.441-2.073v-1.988c0-2.73-3.082-4.063-5.832-4.063-2.934 0-6.604 1.111-6.604 4.031v32.676c0 2.685 3.72 4.117 6.604 4.117 2.755 0 6.689-1.602 6.689-4.104v-19.156c0-4.269 2.584-6.414 5.403-6.414 2.926 0 5.832 2.308 5.832 6.5v19.156c0 5.355 13.293 5.378 13.293 0v-19.242c0-4.284 2.683-6.499 5.489-6.499 2.923 0 5.746 2.221 5.746 6.499v19.156c0 2.483 3.924 4.104 6.604 4.104 2.926 0 6.689-1.635 6.689-4.117v-19.211c.001-19.187-20.957-24.226-28.472-9.372z"></path>
              <path d="m388.96 364.24c.649 59.907-1.478 56.661 1.887 58.876 4.197 2.768 11.407.511 11.407-2.873v-56.003c0-5.288-13.294-5.456-13.294 0z"></path>
              <path d="m408.768 259.362h-24.68v-214.468c0-24.755-20.14-44.894-44.893-44.894h-164.843c-16.25 0-32.28 5.59-45.063 15.864l-35.853 28.815c-21.644 17.395-25.313 41.182-25.273 41.082-3.009 14.11-1.051-1.821-1.598 381.346 0 24.754 20.14 44.894 44.894 44.894h227.735c23.035 0 42.065-17.443 44.598-39.813h14.825c25.887 0 46.946-21.06 46.946-46.946v-128.177-.908c.001-20.289-16.506-36.795-36.795-36.795zm0 20c9.262 0 16.796 7.535 16.796 16.796v.908c0 10.479-8.525 19.005-19.005 19.005h-22.471v-36.708h24.68zm-302.803-219.094c35.899-28.525 36.522-30.135 43.66-33.99v31.554c0 11.035-8.978 20.013-20.013 20.013h-37.701c3.332-6.78 8.12-12.808 14.054-17.577zm233.23 431.732h-227.736c-13.727 0-24.894-11.167-24.894-24.894.03-390.963-.076-366.502.085-369.261h42.962c22.063 0 40.013-17.95 40.013-40.013v-37.612c4.428-.41-4.282-.143 169.569-.22 13.727 0 24.894 11.167 24.894 24.894v224.468 46.708h-129.281c-19.243 0-34.898 15.655-34.898 34.898v86.32c0 19.243 15.655 34.898 34.898 34.898h128.76c-2.353 11.299-12.387 19.814-24.372 19.814zm86.369-66.758c0 14.858-12.088 26.946-26.946 26.946h-24.529-139.282c-8.215 0-14.898-6.684-14.898-14.898v-86.32c0-8.215 6.684-14.898 14.898-14.898 177.592 0 178.191 2.09 190.757-4.951z"></path><path d="m177.663 343.849h-67.051c-5.522 0-10 4.477-10 10s4.478 10 10 10h67.051c5.522 0 10-4.477 10-10s-4.477-10-10-10z"></path>
              <path d="m177.663 385.336h-27.051c-5.522 0-10 4.477-10 10s4.478 10 10 10h27.051c5.522 0 10-4.477 10-10s-4.477-10-10-10z"></path><path d="m110.612 405.336h.025c5.522 0 9.987-4.477 9.987-10s-4.49-10-10.013-10-10 4.477-10 10 4.479 10 10.001 10z"></path><path d="m177.663 426.824h-67.051c-5.522 0-10 4.477-10 10s4.478 10 10 10h67.051c5.522 0 10-4.477 10-10s-4.477-10-10-10z"></path></g></g>
          </svg>
