<svg id="Capa_1" enable-background="new 0 0 512 512" height="512" viewBox="0 0 512 512" width="512" xmlns="http://www.w3.org/2000/svg"><g id="XMLID_813_"><circle id="XMLID_1829_" cx="256" cy="256" fill="#ffd88e" r="166"></circle><g id="XMLID_1335_"><path id="XMLID_218_" d="m256 431.917c-45.07 0-90.14-17.156-124.451-51.466-27.743-27.744-45.062-62.926-50.086-101.744-4.864-37.588 2.667-76.368 21.205-109.195 2.715-4.808 8.816-6.506 13.625-3.79s6.506 8.816 3.79 13.625c-34.288 60.714-23.757 137.596 25.608 186.962 30.409 30.408 70.366 45.614 110.309 45.618 39.953.004 79.893-15.202 110.309-45.618 60.824-60.824 60.824-159.793 0-220.618-49.365-49.365-126.247-59.896-186.962-25.608-4.81 2.715-10.91 1.019-13.625-3.79-2.716-4.809-1.019-10.909 3.79-13.625 32.828-18.54 71.607-26.07 109.195-21.205 38.818 5.023 74 22.343 101.744 50.086 68.622 68.623 68.622 180.28 0 248.902-34.311 34.311-79.381 51.466-124.451 51.466z"></path></g><g id="XMLID_1455_"><path id="XMLID_217_" d="m256 342.28c-14.34 0-28.681-5.458-39.598-16.375-3.905-3.905-3.905-10.237 0-14.143 3.905-3.905 10.237-3.905 14.143 0 14.036 14.037 36.875 14.037 50.911 0 3.905-3.905 10.237-3.905 14.143 0 3.905 3.905 3.905 10.237 0 14.143-10.918 10.917-25.259 16.375-39.599 16.375z"></path></g><g id="XMLID_1456_"><path id="XMLID_216_" d="m204.152 243.63c-2.559 0-5.119-.976-7.071-2.929-6.086-6.087-15.988-6.087-22.074 0-3.905 3.905-10.237 3.905-14.143 0-3.905-3.905-3.905-10.237 0-14.143 13.885-13.884 36.475-13.884 50.359 0 3.905 3.905 3.905 10.237 0 14.143-1.952 1.953-4.512 2.929-7.071 2.929z"></path></g><g id="XMLID_1458_"><path id="XMLID_215_" d="m344.064 243.63c-2.559 0-5.119-.976-7.071-2.929-6.086-6.087-15.988-6.087-22.074 0-3.905 3.905-10.237 3.905-14.143 0-3.905-3.905-3.905-10.237 0-14.143 13.885-13.884 36.475-13.884 50.359 0 3.905 3.905 3.905 10.237 0 14.143-1.952 1.953-4.511 2.929-7.071 2.929z"></path></g><g id="XMLID_1460_"><path id="XMLID_214_" d="m256 60c-5.523 0-10-4.477-10-10v-40c0-5.523 4.477-10 10-10s10 4.477 10 10v40c0 5.523-4.477 10-10 10z"></path></g><g id="XMLID_1525_"><path id="XMLID_213_" d="m406.207 115.793c-2.559 0-5.119-.976-7.071-2.929-3.905-3.905-3.905-10.237 0-14.143l52.254-52.254c3.905-3.905 10.237-3.905 14.143 0 3.905 3.905 3.905 10.237 0 14.143l-52.254 52.254c-1.953 1.953-4.513 2.929-7.072 2.929z"></path></g><g id="XMLID_1801_"><path id="XMLID_212_" d="m105.793 115.793c-2.559 0-5.119-.976-7.071-2.929l-52.254-52.254c-3.905-3.905-3.905-10.237 0-14.143 3.905-3.905 10.237-3.905 14.143 0l52.254 52.254c3.905 3.905 3.905 10.237 0 14.143-1.953 1.953-4.513 2.929-7.072 2.929z"></path></g><g id="XMLID_1803_"><path id="XMLID_211_" d="m458.461 468.461c-2.559 0-5.119-.976-7.071-2.929l-52.254-52.254c-3.905-3.905-3.905-10.237 0-14.143 3.905-3.905 10.237-3.905 14.143 0l52.254 52.254c3.905 3.905 3.905 10.237 0 14.143-1.953 1.953-4.513 2.929-7.072 2.929z"></path></g><g id="XMLID_1802_"><path id="XMLID_210_" d="m53.539 468.461c-2.559 0-5.119-.976-7.071-2.929-3.905-3.905-3.905-10.237 0-14.143l52.254-52.254c3.905-3.905 10.237-3.905 14.143 0 3.905 3.905 3.905 10.237 0 14.143l-52.255 52.254c-1.952 1.953-4.512 2.929-7.071 2.929z"></path></g><g id="XMLID_1459_"><path id="XMLID_209_" d="m256 512c-5.523 0-10-4.477-10-10v-40c0-5.523 4.477-10 10-10s10 4.477 10 10v40c0 5.523-4.477 10-10 10z"></path></g><g id="XMLID_1524_"><path id="XMLID_208_" d="m502 266h-40c-5.523 0-10-4.477-10-10s4.477-10 10-10h40c5.523 0 10 4.477 10 10s-4.477 10-10 10z"></path></g><g id="XMLID_1523_"><path id="XMLID_207_" d="m50 266h-40c-5.523 0-10-4.477-10-10s4.477-10 10-10h40c5.523 0 10 4.477 10 10s-4.477 10-10 10z"></path></g><g id="XMLID_1336_"><path id="XMLID_206_" d="m138.62 148.62c-2.63 0-5.21-1.07-7.07-2.93s-2.93-4.44-2.93-7.07 1.07-5.21 2.93-7.07 4.44-2.93 7.07-2.93 5.21 1.07 7.07 2.93 2.93 4.44 2.93 7.07-1.07 5.21-2.93 7.07-4.44 2.93-7.07 2.93z"></path></g></g></svg>
