<svg height="511pt" viewBox="0 0 511.998 511" width="511pt" xmlns="http://www.w3.org/2000/svg">
            <path d="m407.277344 501.5h62.886718l13.660157-105.28125c2.339843-18.03125 1.941406-36.316406-1.183594-54.230469l-3.761719-21.554687c-5.757812-32.996094-2.214844-66.941406 10.226563-98.042969 8.53125-21.316406 12.914062-44.066406 12.914062-67.027344v-50.316406c0-52.226563-42.339843-94.566406-94.566406-94.566406h-302.90625c-52.226563 0-94.566406 42.335937-94.566406 94.566406v50.425781c0 22.898438 4.246093 45.601563 12.523437 66.953125 12.058594 31.109375 15.492188 64.902344 9.933594 97.800781l-3.832031 22.707032c-3.003907 17.789062-3.394531 35.921875-1.15625 53.824218l13.09375 104.742188zm0 0" fill="#ffcdac"></path>
            <path d="m422.558594 108.484375c-5.507813 0-9.976563 4.46875-9.976563 9.976563 0 10.578124-3.476562 20.539062-9.585937 29.25-.257813.3125-.503906.636718-.722656.980468-13.734376 18.753906-39.808594 31.449219-69.671876 31.449219h-17.007812c-5.511719 0-9.980469 4.46875-9.980469 9.980469 0 5.511718 4.46875 9.980468 9.980469 9.980468h17.007812c25.4375 0 48.683594-7.808593 66.34375-20.640624l-9.386718 135.71875c-.382813 5.5 3.765625 10.265624 9.265625 10.648437.234375.015625.46875.023437.699219.023437 5.199218 0 9.582031-4.027343 9.945312-9.292968l11.015625-159.253906c7.6875-11.558594 12.054687-24.789063 12.054687-38.84375 0-5.511719-4.46875-9.976563-9.980468-9.976563zm0 0"></path>
            <path d="m407.453125.5h-302.90625c-57.648437 0-104.546875 46.898438-104.546875 104.546875v50.425781c0 24.226563 4.441406 47.96875 13.199219 70.5625 11.402343 29.417969 14.652343 61.417969 9.398437 92.53125l-3.832031 22.703125c-3.167969 18.765625-3.578125 37.847657-1.21875 56.726563l13.089844 104.742187c.625 4.996094 4.871093 8.742188 9.90625 8.742188h61.089843.042969.042969 305.523438.023437.023437 62.875c5.015626 0 9.25-3.722657 9.898438-8.695313l13.65625-105.28125c2.472656-19.050781 2.054688-38.304687-1.25-57.230468l-3.757812-21.554688c-5.445313-31.195312-2.101563-63.222656 9.660156-92.621094 9.042968-22.597656 13.625-46.398437 13.625-70.738281v-50.3125c.003906-57.648437-46.894532-104.546875-104.542969-104.546875zm84.585937 154.859375c0 21.789063-4.101562 43.09375-12.199218 63.324219-13.140625 32.839844-16.871094 68.617187-10.792969 103.464844l3.761719 21.554687c2.957031 16.941406 3.332031 34.179687 1.121094 51.230469l-12.53125 96.585937h-45.570313l-.417969-2.679687c-4.757812-30.585938-7.550781-61.777344-8.304687-92.707032-.132813-5.429687-4.574219-9.738281-9.972657-9.738281-.082031 0-.167968 0-.25.003907-5.507812.132812-9.867187 4.710937-9.734374 10.21875.773437 31.664062 3.628906 63.589843 8.484374 94.902343h-57.488281l26.949219-33.6875c3.441406-4.304687 2.742188-10.582031-1.5625-14.027343-4.300781-3.445313-10.582031-2.746094-14.027344 1.558593l-36.921875 46.15625h-48.128906v-43.402343c14.734375 3.773437 28.40625 2.1875 40.769531-4.796876 4.800782-2.710937 6.492188-8.796874 3.78125-13.597656-2.710937-4.800781-8.800781-6.496094-13.597656-3.78125-9.03125 5.101563-19.191406 5.535156-30.953125 1.320313v-24.054688c14.734375 3.773438 28.40625 2.1875 40.769531-4.796875 4.800782-2.710937 6.492188-8.796875 3.78125-13.597656-2.710937-4.800781-8.800781-6.492188-13.597656-3.78125-9.03125 5.101562-19.191406 5.535156-30.953125 1.320312v-43.847656c0-5.511718-4.46875-9.980468-9.980469-9.980468-5.511718 0-9.980468 4.46875-9.980468 9.980468v44.53125c-11.433594 3.324219-20.605469 3.476563-31.191407-2.132812-4.871093-2.578125-10.910156-.722656-13.488281 4.148437-2.582031 4.871094-.726562 10.910157 4.144531 13.492188 9.378907 4.96875 18.175781 6.789062 26.410157 6.789062 4.910156 0 9.609374-.660156 14.125-1.675781v24.289062c-11.433594 3.328126-20.605469 3.476563-31.191407-2.132812-4.871093-2.578125-10.910156-.722656-13.488281 4.148438-2.582031 4.871093-.726562 10.910156 4.144531 13.492187 9.378907 4.96875 18.175781 6.789063 26.410157 6.789063 4.910156 0 9.609374-.660157 14.125-1.675782v42.953125h-50.0625l-36.925782-46.15625c-3.441406-4.304687-9.722656-5-14.027344-1.558593-4.304687 3.445312-5 9.722656-1.558593 14.027343l26.949219 33.6875h-55.390626c9.332032-57.914062 11.722657-116.832031 7.097657-175.324219l-10.761719-136.128906c17.554688 12.472656 40.472656 20.035156 65.511719 20.035156h18.023437c5.511719 0 9.980469-4.46875 9.980469-9.980468 0-5.511719-4.46875-9.980469-9.980469-9.980469h-18.023437c-29.480469 0-55.265625-12.375-69.136719-30.730469-.21875-.332031-.457031-.644531-.710938-.949218-6.441406-8.886719-10.132812-19.113282-10.132812-30 0-5.511719-4.46875-9.980469-9.980469-9.980469s-9.980469 4.46875-9.980469 9.980469c0 14.425781 4.613282 27.988281 12.683594 39.761718l12.609375 159.546875c4.585938 57.976563 2.066407 116.382813-7.441406 173.75h-43.882813l-12-95.996093c-2.117187-16.949219-1.75-34.082032 1.09375-50.925782l3.835938-22.707031c5.851562-34.65625 2.230469-70.296875-10.472656-103.070313-7.863282-20.28125-11.847656-41.597656-11.847656-63.347656v-50.425781c0-46.640625 37.945312-84.585937 84.585937-84.585937h302.90625c46.640625 0 84.585937 37.945312 84.585937 84.585937zm0 0"></path>
            <path d="m170.980469 145.210938c-.25-.609376-.550781-1.1875-.910157-1.726563-.367187-.550781-.789062-1.058594-1.246093-1.515625-.460938-.460938-.96875-.878906-1.519531-1.238281-.539063-.359375-1.117188-.667969-1.714844-.917969-.609375-.25-1.238282-.441406-1.867188-.570312-1.285156-.257813-2.613281-.257813-3.902344 0-.636718.128906-1.265624.320312-1.867187.570312-.605469.25-1.1875.558594-1.726563.917969-.546874.359375-1.054687.777343-1.515624 1.238281-.457032.457031-.878907.964844-1.238282 1.515625-.359375.539063-.667968 1.117187-.917968 1.726563-.25.597656-.4375 1.226562-.566407 1.867187-.132812.636719-.199219 1.296875-.199219 1.945313 0 .648437.066407 1.308593.199219 1.945312.128907.640625.316407 1.269531.566407 1.875.25.601562.558593 1.179688.917968 1.71875.359375.546875.78125 1.058594 1.238282 1.515625.460937.460937.96875.878906 1.515624 1.25.539063.359375 1.121094.667969 1.726563.917969.601563.246094 1.230469.4375 1.867187.566406.640626.128906 1.296876.1875 1.945313.1875.652344 0 1.308594-.058594 1.957031-.1875.628906-.128906 1.257813-.320312 1.867188-.566406.597656-.25 1.175781-.558594 1.714844-.917969.550781-.371094 1.058593-.789063 1.519531-1.25.457031-.457031.878906-.96875 1.246093-1.515625.359376-.539062.660157-1.117188.910157-1.71875.25-.605469.449219-1.234375.578125-1.875s.1875-1.296875.1875-1.945312c0-.648438-.058594-1.308594-.1875-1.945313-.128906-.640625-.328125-1.269531-.578125-1.867187zm0 0"></path>
            <path d="m336.9375 152.84375c.25.601562.558594 1.179688.917969 1.71875.371093.546875.777343 1.058594 1.238281 1.515625.46875.460937.976562.878906 1.519531 1.25.546875.359375 1.125.667969 1.722657.917969.597656.246094 1.230468.4375 1.867187.566406.648437.128906 1.308594.1875 1.957031.1875 2.625 0 5.1875-1.066406 7.054688-2.921875.460937-.460937.878906-.96875 1.238281-1.515625.359375-.539062.667969-1.121094.917969-1.71875.25-.609375.4375-1.238281.566406-1.875.132812-.640625.203125-1.300781.203125-1.949219 0-.644531-.070313-1.304687-.203125-1.945312-.128906-.636719-.316406-1.265625-.566406-1.863281-.25-.609376-.558594-1.1875-.917969-1.726563-.359375-.550781-.777344-1.058594-1.238281-1.519531-2.324219-2.3125-5.769532-3.382813-9.011719-2.722656-.636719.128906-1.269531.320312-1.867187.566406-.597657.25-1.175782.558594-1.722657.917968-.539062.359376-1.050781.78125-1.519531 1.238282-.460938.460937-.878906.96875-1.238281 1.519531-.359375.539063-.667969 1.117187-.917969 1.726563-.25.597656-.4375 1.226562-.566406 1.863281-.132813.640625-.191406 1.300781-.191406 1.945312 0 .648438.0625 1.308594.191406 1.949219s.316406 1.269531.566406 1.875zm0 0"></path>
            <path d="m254.472656 279.585938c-49.726562 0-90.179687 40.453124-90.179687 90.175781 0 5.511719 4.46875 9.980469 9.980469 9.980469 5.511718 0 9.980468-4.46875 9.980468-9.980469 0-38.71875 31.5-70.214844 70.21875-70.214844 38.714844 0 70.214844 31.496094 70.214844 70.214844 0 5.511719 4.46875 9.980469 9.980469 9.980469s9.980469-4.46875 9.980469-9.980469c0-49.722657-40.453126-90.175781-90.175782-90.175781zm0 0"></path>
            <path d="m407.425781 351.976562c-.246093-.609374-.558593-1.1875-.917969-1.726562-.355468-.546875-.777343-1.058594-1.234374-1.515625-.460938-.460937-.96875-.878906-1.519532-1.238281-.539062-.359375-1.117187-.667969-1.726562-.917969-.597656-.25-1.226563-.4375-1.863282-.566406-1.289062-.261719-2.617187-.261719-3.894531 0-.636719.128906-1.265625.316406-1.875.566406-.601562.25-1.175781.558594-1.714843.917969-.550782.359375-1.0625.777344-1.519532 1.238281-.460937.457031-.878906.96875-1.246094 1.515625-.359374.539062-.660156 1.117188-.910156 1.726562-.25.601563-.449218 1.226563-.578125 1.867188-.128906.636719-.1875 1.296875-.1875 1.945312 0 .648438.058594 1.308594.1875 1.957032.128907.628906.328125 1.257812.578125 1.867187.25.597657.558594 1.175781.917969 1.714844.359375.550781.777344 1.058594 1.238281 1.515625.457032.460938.96875.882812 1.519532 1.25.539062.359375 1.113281.667969 1.714843.917969.609375.25 1.238281.4375 1.875.566406.640625.132813 1.296875.191406 1.949219.191406.644531 0 1.304688-.0625 1.945312-.191406.636719-.128906 1.265626-.316406 1.863282-.566406.609375-.25 1.1875-.558594 1.726562-.917969.550782-.367188 1.058594-.789062 1.519532-1.25.457031-.457031.878906-.964844 1.234374-1.515625.359376-.539063.671876-1.117187.917969-1.714844.25-.609375.449219-1.238281.570313-1.867187.128906-.648438.199218-1.308594.199218-1.957032 0-.648437-.070312-1.308593-.199218-1.945312-.121094-.636719-.320313-1.265625-.570313-1.867188zm0 0"></path>
        </svg>
