<svg id="Capa_1" enable-background="new 0 0 512 512" height="512" viewBox="0 0 512 512" width="512" xmlns="http://www.w3.org/2000/svg"><g><g><g><g>
              <path d="m40.226 111.58h431.548v288.84h-431.548z" fill="#fffbdf"></path></g></g><g><g><g>
              <path d="m210.794 355.706h-78.373c0-26.223-21.258-47.481-47.481-47.481v-104.45c26.223 0 47.481-21.258 47.481-47.481h247.159c0 26.223 21.258 47.481 47.481 47.481v104.449c-26.223 0-47.481 21.258-47.481 47.481h-78.373" fill="#fff2a0"></path></g></g></g><g><g><g>
              <path d="m299.397 273.975 17.975-17.975-17.975-17.975v-25.422h-25.422l-17.975-17.975-17.975 17.975h-25.422v25.422l-17.975 17.975 17.975 17.975v25.422h25.422l17.975 17.975 17.975-17.975h25.422z" fill="#ccf5fc"></path></g></g></g></g><g>
              <path d="m84.939 318.225c20.667 0 37.481 16.814 37.481 37.481 0 5.522 4.478 10 10 10h78.373c5.523 0 10-4.478 10-10s-4.477-10-10-10h-69.243c-4.174-23.695-22.915-42.437-46.61-46.61v-86.191c23.695-4.174 42.437-22.915 46.61-46.61h228.9c4.174 23.695 22.915 42.437 46.61 46.61v86.191c-23.695 4.174-42.436 22.915-46.61 46.61h-69.244c-5.522 0-10 4.478-10 10s4.478 10 10 10h78.373c5.522 0 10-4.478 10-10 0-20.667 16.814-37.481 37.481-37.481 5.523 0 10-4.478 10-10v-104.45c0-5.523-4.477-10-10-10-20.667 0-37.481-16.814-37.481-37.482 0-5.522-4.478-10-10-10h-247.158c-5.522 0-10 4.478-10 10 0 20.667-16.814 37.482-37.481 37.482-5.522 0-10 4.477-10 10v104.449c-.001 5.523 4.477 10.001 9.999 10.001z"></path>
              <path d="m309.397 299.397v-21.278l15.047-15.047c3.905-3.905 3.905-10.237 0-14.143l-15.047-15.047v-21.278c0-5.522-4.478-10-10-10h-21.278l-15.047-15.047c-3.906-3.904-10.236-3.904-14.143 0l-15.047 15.047h-21.278c-5.522 0-10 4.478-10 10v21.278l-15.047 15.047c-3.905 3.905-3.905 10.237 0 14.143l15.047 15.047v21.278c0 5.522 4.478 10 10 10h21.278l15.047 15.047c1.953 1.952 4.512 2.929 7.071 2.929s5.118-.977 7.071-2.929l15.047-15.047h21.278c5.523 0 10.001-4.478 10.001-10zm-20-25.421v15.421h-15.421c-2.652 0-5.195 1.054-7.071 2.929l-10.905 10.903-10.904-10.904c-1.876-1.875-4.419-2.929-7.071-2.929h-15.421v-15.421c0-2.652-1.054-5.195-2.929-7.071l-10.905-10.904 10.904-10.904c1.875-1.876 2.929-4.419 2.929-7.071v-15.421h15.421c2.652 0 5.195-1.054 7.071-2.929l10.905-10.905 10.904 10.904c1.876 1.875 4.419 2.929 7.071 2.929h15.421v15.421c0 2.652 1.054 5.195 2.929 7.071l10.904 10.905-10.904 10.904c-1.875 1.876-2.928 4.419-2.928 7.072z"></path>
              <path d="m502 181.745c5.522 0 10-4.478 10-10s-4.478-10-10-10h-20.226v-22.532h20.226c5.522 0 10-4.478 10-10 0-5.523-4.478-10-10-10h-20.226v-7.633c0-5.522-4.478-10-10-10h-431.548c-5.523 0-10 4.478-10 10v7.633h-20.226c-5.523 0-10 4.478-10 10s4.477 10 10 10h20.226v22.532h-20.226c-5.523 0-10 4.478-10 10s4.477 10 10 10h20.226v22.531h-20.226c-5.523 0-10 4.478-10 10s4.477 10 10 10h20.226v22.532h-20.226c-5.523 0-10 4.478-10 10s4.477 10 10 10h20.226v22.532h-20.226c-5.523 0-10 4.478-10 10 0 5.523 4.477 10 10 10h20.226v22.531h-20.226c-5.523 0-10 4.478-10 10s4.477 10 10 10h20.226v22.532h-20.226c-5.523 0-10 4.478-10 10s4.477 10 10 10h20.226v6.016c0 5.523 4.477 10 10 10h431.549c5.522 0 10-4.477 10-10v-6.016h20.225c5.522 0 10-4.478 10-10s-4.478-10-10-10h-20.226v-22.532h20.226c5.522 0 10-4.478 10-10s-4.478-10-10-10h-20.226v-22.531h20.226c5.522 0 10-4.477 10-10 0-5.522-4.478-10-10-10h-20.226v-22.532h20.226c5.522 0 10-4.478 10-10s-4.478-10-10-10h-20.226v-22.532h20.226c5.522 0 10-4.478 10-10s-4.478-10-10-10h-20.226v-22.531zm-40.226 208.675h-411.548v-268.84h411.549v268.84z"></path>
              <path d="m265.42 351.88c-1.609-3.865-5.584-6.388-9.771-6.161-4.104.222-7.718 3.023-8.979 6.93-1.277 3.956.105 8.468 3.424 10.992 3.335 2.536 7.972 2.724 11.499.467 4.031-2.58 5.636-7.812 3.827-12.228z"></path></g></g>
          </svg>
