<svg width="1440" height="900" viewBox="0 0 1440 900" fill="none" xmlns="http://www.w3.org/2000/svg">
<path opacity="0.068" d="M247.042 538.928C263.935 582.056 219.63 651.446 185.272 705.449C150.915 759.453 126.467 797.843 101.341 847.956C76.1305 898.202 50.1174 960.078 9.16406 977.535C-31.7497 995.22 -87.6434 968.26 -120.053 925.467C-152.548 882.806 -161.559 824.313 -200.706 784.726C-239.853 745.139 -308.97 724.781 -311.248 698.003C-313.439 671.093 -248.751 637.992 -220.966 587.516C-193.307 536.946 -202.551 469.002 -180.677 427.092C-158.929 385.087 -105.852 369.077 -58.1197 379.227C-10.3481 389.603 31.9527 426.044 92.0239 452.602C152.306 479.123 230.274 495.894 247.042 538.928Z" fill="#828282"/>
<path opacity="0.2" d="M315.311 181.653C328.589 131.128 412.628 100.367 477.923 76.3384C543.218 52.3102 589.656 35.2464 644.324 8.17288C699.153 -18.9587 762.259 -55.927 809.534 -42.5979C856.923 -29.5 888.368 34.1265 888.91 95.3184C889.614 156.452 859.417 215.151 867.955 278.237C876.493 341.323 923.831 408.391 908.387 433.956C892.782 459.58 814.508 443.469 757.273 468.987C700.086 494.678 663.939 561.996 617.465 584.029C571.039 606.236 514.077 583.041 478.84 540.223C443.715 497.174 430.363 434.674 394.994 368.453C359.416 302.118 301.984 232.004 315.311 181.653Z" fill="#4F4F4F"/>
<path opacity="0.068" d="M1283.38 -42.8038C1308.57 -81.6833 1390.8 -86.2112 1454.72 -89.8358C1518.64 -93.4604 1564.1 -96.017 1619.48 -104.865C1675.01 -113.722 1740.46 -128.713 1778.54 -105.657C1816.79 -82.7664 1827.5 -21.6644 1811.64 29.6142C1795.95 80.8851 1753.68 122.333 1744.36 177.209C1735.04 232.086 1758.83 300.07 1738.41 317.544C1717.82 335.026 1653.18 301.833 1595.96 308.734C1538.73 315.791 1488.93 362.943 1442.11 369.644C1395.29 376.502 1351.31 342.76 1331.71 298.093C1312.26 253.26 1317.18 197.66 1303.71 133.401C1290.08 68.9928 1258.21 -4.08133 1283.38 -42.8038Z" fill="#828282"/>
</svg>
