<svg width="1440" height="898" viewBox="0 0 1440 898" fill="none" xmlns="http://www.w3.org/2000/svg">
<path opacity="0.068" d="M329.348 414.214C346.241 457.342 301.936 526.732 267.578 580.736C233.221 634.739 208.773 673.129 183.647 723.243C158.437 773.489 132.423 835.364 91.4701 852.822C50.5564 870.506 -5.33733 843.546 -37.7467 800.753C-70.242 758.093 -79.2528 699.599 -118.4 660.012C-157.547 620.425 -226.664 600.067 -228.942 573.29C-231.133 546.38 -166.445 513.278 -138.66 462.803C-111.001 412.233 -120.245 344.289 -98.3714 302.378C-76.6231 260.373 -23.5457 244.364 24.1863 254.513C71.958 264.889 114.259 301.33 174.33 327.889C234.612 354.409 312.58 371.181 329.348 414.214Z" fill="#828282"/>
<path opacity="0.8" d="M606.129 695.736C581.984 682.635 573.495 631.877 566.836 592.426C560.177 552.975 555.454 524.919 546.405 491.115C537.34 457.213 524.04 417.555 534.563 392.41C544.979 367.176 579.324 356.545 609.926 363.048C640.512 369.455 667.355 392.995 699.556 395.206C731.758 397.417 769.121 378.217 780.625 389.76C792.144 401.401 777.698 443.696 785.76 478.774C793.912 513.843 824.573 541.694 831.775 570.323C839.068 598.943 822.827 628.446 798.563 643.529C774.192 658.522 741.889 659.088 705.928 671.641C669.893 684.299 630.183 708.846 606.129 695.736Z" fill="#BDBDBD"/>
<path opacity="0.068" d="M1131.38 80.8187C1156.57 41.9392 1238.8 37.4114 1302.72 33.7868C1366.64 30.1622 1412.1 27.6056 1467.48 18.7572C1523.01 9.90097 1588.46 -5.09006 1626.54 17.9654C1664.79 40.8561 1675.5 101.958 1659.64 153.237C1643.95 204.508 1601.68 245.955 1592.36 300.832C1583.04 355.708 1606.83 423.692 1586.41 441.166C1565.82 458.648 1501.18 425.455 1443.96 432.356C1386.73 439.414 1336.93 486.566 1290.11 493.266C1243.29 500.124 1199.31 466.382 1179.71 421.715C1160.26 376.883 1165.18 321.282 1151.71 257.023C1138.08 192.615 1106.21 119.541 1131.38 80.8187Z" fill="#828282"/>
</svg>
