<svg width="1159" height="1012" viewBox="0 0 1159 1012" fill="none" xmlns="http://www.w3.org/2000/svg">
  <path
    opacity="0.724"
    d="M1186.25 707.093C1210.25 720.867 1210.55 767.469 1210.85 803.695C1211.15 839.921 1211.35 865.682 1215.25 896.988C1219.15 928.384 1226.65 965.326 1210.75 987.24C1194.95 1009.24 1155.65 1016.13 1123.45 1007.81C1091.25 999.584 1066.15 976.149 1031.45 971.587C996.748 967.025 952.648 981.426 942.148 970.066C931.648 958.617 954.848 921.497 952.248 889.117C949.548 856.737 921.048 829.098 918.248 802.622C915.348 776.146 938.248 750.743 967.348 739.025C996.548 727.397 1031.85 729.454 1073.25 720.957C1114.75 712.37 1162.35 693.318 1186.25 707.093Z"
    fill="#BDBDBD"/>
  <path
    opacity="0.8"
    d="M312.602 986.672C289.799 1001.99 240.865 985.986 202.804 973.603C164.742 961.22 137.68 952.404 103.518 944.755C69.2616 937.074 27.939 930.478 10.5227 909.506C-7.02231 888.587 -0.532509 853.239 19.4137 829.147C39.2661 805.023 72.575 792.155 89.4568 764.657C106.339 737.159 106.63 695.167 122.194 690.327C137.853 685.517 168.656 717.912 203.49 727.026C238.358 736.055 277.258 721.803 305.976 728.689C334.729 735.492 353.359 763.549 355.487 792.03C357.487 820.564 343.021 849.439 337.485 887.108C332.009 924.893 335.37 971.441 312.602 986.672Z"
    fill="#828282"/>
  <path
    opacity="0.104"
    d="M698.449 147.351C701.289 121.971 747.587 100.596 783.546 83.9278C819.505 67.2591 845.082 55.4164 874.507 38.109C904.021 20.761 937.427 -1.97196 966.474 0.764437C995.564 3.38055 1020.25 31.5863 1026.57 61.0284C1032.97 90.43 1021 121.068 1032.2 150.799C1043.39 180.53 1077.74 209.155 1071.18 222.677C1064.53 236.24 1017.03 234.581 985.942 251.339C954.904 268.176 940.29 303.431 915.179 317.671C890.114 331.991 854.417 325.256 829.544 307.372C804.715 289.368 790.755 260.294 763.512 231.145C736.134 201.956 695.563 172.651 698.449 147.351Z"
    fill="#828282"/>
</svg>
