<svg width="375" height="667" viewBox="0 0 375 667" fill="none" xmlns="http://www.w3.org/2000/svg">
<path opacity="0.104" d="M-136.647 90.2858C-133.806 64.8945 -87.5088 43.5104 -51.5495 26.8341C-15.5903 10.1579 9.98668 -1.69019 39.4114 -19.0054C68.9252 -36.3613 102.332 -59.1045 131.378 -56.3669C160.469 -53.7496 185.155 -25.5311 191.47 3.92441C197.874 33.3393 185.908 63.9911 197.1 93.7358C208.292 123.481 242.641 152.118 236.085 165.647C229.439 179.216 181.931 177.556 150.847 194.321C119.808 211.166 105.195 246.437 80.0838 260.684C55.0183 275.01 19.3212 268.272 -5.55175 250.38C-30.381 232.368 -44.3407 203.281 -71.5836 174.118C-98.961 144.916 -139.533 115.597 -136.647 90.2858Z" fill="#828282"/>
<path opacity="0.416" d="M375.761 299.903C398.407 311.734 401.601 362.631 404.145 402.187C406.688 441.743 408.485 469.874 413.987 503.569C419.495 537.362 428.618 576.732 415.562 602.823C402.602 628.998 367.366 641.809 337.62 637.044C307.88 632.378 283.63 610.136 251.851 609.814C220.072 609.492 180.951 631.161 170.709 620.155C160.461 609.052 179.19 565.36 174.8 530.317C170.319 495.287 142.72 468.907 138.519 440.344C134.227 411.794 153.418 380.95 179.094 364.23C204.866 347.595 237.033 345.099 274.074 330.246C311.2 315.282 353.206 288.059 375.761 299.903Z" fill="#828282"/>
</svg>
