<svg width="1440" height="1001" viewBox="0 0 1440 1001" fill="none" xmlns="http://www.w3.org/2000/svg">
<path opacity="0.068" d="M249.042 661.928C265.935 705.056 221.629 774.446 187.272 828.449C152.915 882.453 128.467 920.843 103.341 970.956C78.1304 1021.2 52.1174 1083.08 11.164 1100.54C-29.7497 1118.22 -85.6434 1091.26 -118.053 1048.47C-150.548 1005.81 -159.559 947.313 -198.706 907.726C-237.853 868.139 -306.971 847.781 -309.248 821.003C-311.439 794.093 -246.751 760.992 -218.966 710.516C-191.307 659.946 -200.551 592.002 -178.677 550.092C-156.929 508.087 -103.852 492.077 -56.1198 502.227C-8.34811 512.603 33.9526 549.044 94.0239 575.602C154.306 602.123 232.273 618.894 249.042 661.928Z" fill="#828282"/>
<path opacity="0.8" d="M317.311 304.653C330.589 254.128 414.628 223.367 479.923 199.338C545.218 175.31 591.656 158.246 646.324 131.173C701.153 104.041 764.259 67.073 811.535 80.4021C858.923 93.5 890.368 157.126 890.91 218.318C891.615 279.452 861.417 338.151 869.955 401.237C878.493 464.323 925.831 531.391 910.387 556.956C894.782 582.58 816.508 566.469 759.273 591.987C702.086 617.678 665.939 684.996 619.465 707.029C573.039 729.236 516.077 706.041 480.84 663.223C445.715 620.174 432.363 557.674 396.994 491.453C361.416 425.118 303.984 355.004 317.311 304.653Z" fill="#BDBDBD"/>
<path opacity="0.068" d="M1285.38 80.1962C1310.57 41.3167 1392.8 36.7888 1456.72 33.1642C1520.64 29.5396 1566.1 26.983 1621.48 18.1346C1677.01 9.2784 1742.46 -5.71261 1780.54 17.3429C1818.79 40.2336 1829.5 101.336 1813.64 152.614C1797.95 203.885 1755.68 245.333 1746.36 300.209C1737.04 355.086 1760.83 423.07 1740.41 440.544C1719.82 458.026 1655.18 424.833 1597.96 431.734C1540.73 438.791 1490.93 485.943 1444.11 492.644C1397.29 499.502 1353.31 465.76 1333.71 421.093C1314.26 376.26 1319.18 320.66 1305.71 256.401C1292.08 191.993 1260.21 118.919 1285.38 80.1962Z" fill="#828282"/>
<path opacity="0.264" d="M1243.9 681.548C1254.02 667.834 1287.21 666.031 1313.01 664.593C1338.81 663.155 1357.16 662.139 1379.5 658.889C1401.91 655.636 1428.31 650.204 1443.72 658.199C1459.18 666.135 1463.58 687.557 1457.24 705.599C1450.97 723.638 1433.96 738.298 1430.26 757.586C1426.57 776.874 1436.26 800.678 1428.03 806.865C1419.74 813.055 1393.61 801.571 1370.52 804.142C1347.42 806.768 1327.38 823.45 1308.49 825.923C1289.59 828.452 1271.8 816.721 1263.83 801.092C1255.92 785.404 1257.84 765.873 1252.32 743.351C1246.74 720.776 1233.79 695.206 1243.9 681.548Z" fill="#828282"/>
</svg>
