<svg width="512" height="512" viewBox="0 0 512 512" fill="none" xmlns="http://www.w3.org/2000/svg">
  <g clip-path="url(#clip0)">
    <path
      d="M92.7394 41.8141C187 -0.556954 324.999 -0.556954 419.259 41.8131C430.34 46.7937 439.094 55.7691 443.884 66.9333C486.686 166.7 486.685 313.343 443.882 413.109C439.093 424.27 430.341 433.245 419.262 438.224C325.001 480.596 186.998 480.596 92.7364 438.224C81.6582 433.245 72.9058 424.271 68.1171 413.109C25.3151 313.342 25.3141 166.698 68.1171 66.9313C72.9068 55.7681 81.6602 46.7937 92.7394 41.8141V41.8141Z"
      fill="#FFF2A0"/>
    <path d="M320.995 452.004C317.286 480.141 289.602 502.001 256 502.001C222.398 502.001 194.714 480.141 191.005 452.004" fill="#FFF2A0"/>
    <path d="M355.993 256.018C372.56 256.018 385.991 242.587 385.991 226.02C385.991 209.453 372.56 196.022 355.993 196.022C339.426 196.022 325.995 209.453 325.995 226.02C325.995 242.587 339.426 256.018 355.993 256.018Z" fill="#FFFBDF"/>
    <path d="M156.007 256.018C172.574 256.018 186.005 242.587 186.005 226.02C186.005 209.453 172.574 196.022 156.007 196.022C139.44 196.022 126.009 209.453 126.009 226.02C126.009 242.587 139.44 256.018 156.007 256.018Z" fill="#FFFBDF"/>
    <path
      d="M453.072 62.9916C447.266 49.4565 436.713 38.6953 423.358 32.6917C326.385 -10.8962 185.613 -10.8992 88.6397 32.6927C75.2867 38.6953 64.7344 49.4555 58.9288 62.9896C14.9189 165.568 14.9189 314.472 58.9278 417.051C64.7334 430.583 75.2837 441.341 88.6377 447.345C118.058 460.57 151.65 469.94 188.498 475.231C200.932 497.191 226.671 512 256 512C285.329 512 311.068 497.191 323.502 475.231C360.35 469.94 393.942 460.569 423.363 447.345C436.716 441.341 447.266 430.583 453.071 417.051C497.081 314.474 497.081 165.57 453.072 62.9916V62.9916ZM434.692 409.166C430.869 418.081 423.932 425.161 415.164 429.103C390.154 440.345 361.829 448.65 330.822 453.857C330.848 453.673 330.885 453.493 330.909 453.31C331.631 447.836 327.777 442.812 322.302 442.09C316.824 441.363 311.804 445.222 311.082 450.696C307.978 474.244 284.297 492 256 492C227.703 492 204.023 474.244 200.918 450.696C200.197 445.221 195.175 441.363 189.698 442.09C184.222 442.812 180.369 447.836 181.091 453.31C181.115 453.494 181.152 453.674 181.178 453.857C150.172 448.649 121.846 440.345 96.8372 429.103C88.0668 425.161 81.1313 418.081 77.3065 409.166C57.1279 362.132 46.0147 302.062 46.0147 240.02C46.0147 177.978 57.128 117.909 77.3075 70.874C81.1323 61.9576 88.0688 54.8761 96.8382 50.9344C141.166 31.0088 197.69 20.0356 255.999 20.0356C314.308 20.0356 370.832 31.0088 415.159 50.9334C423.93 54.8761 430.869 61.9586 434.693 70.876C454.873 117.911 465.985 177.98 465.985 240.021C465.985 302.063 454.872 362.133 434.692 409.166V409.166Z"
      fill="#FFA96B"/>
    <path
      d="M398.558 119.125C361.25 109.208 321.055 123.46 307.045 151.564C304.583 156.506 306.591 162.511 311.534 164.974C312.967 165.688 314.488 166.026 315.987 166.026C319.659 166.026 323.194 163.996 324.944 160.486C334.542 141.228 365.896 131.136 393.42 138.451C398.755 139.874 404.234 136.692 405.651 131.356C407.072 126.018 403.896 120.543 398.558 119.125V119.125Z"
      fill="#FFA96B"/>
    <path
      d="M396.668 258.644C393.29 256.314 389.624 254.337 385.762 252.697C392.116 245.614 395.99 236.261 395.99 226.02C395.99 203.966 378.047 186.023 355.993 186.023C333.938 186.023 315.996 203.966 315.996 226.02C315.996 236.262 319.869 245.614 326.224 252.697C322.363 254.337 318.697 256.314 315.318 258.644C310.771 261.78 309.629 268.006 312.764 272.552C315.9 277.099 322.125 278.24 326.672 275.106C342.566 264.143 369.419 264.143 385.313 275.106C387.046 276.302 389.024 276.876 390.981 276.876C394.158 276.876 397.282 275.365 399.221 272.553C402.357 268.006 401.215 261.78 396.668 258.644V258.644ZM355.993 206.022C367.02 206.022 375.992 214.993 375.992 226.02C375.992 237.047 367.02 246.019 355.993 246.019C344.966 246.019 335.994 237.047 335.994 226.02C335.994 214.993 344.966 206.022 355.993 206.022Z"
      fill="#FFA96B"/>
    <path
      d="M194.954 130.488C197.417 125.546 195.408 119.542 190.466 117.078C185.523 114.614 179.519 116.624 177.055 121.566C167.456 140.823 136.099 150.912 108.579 143.601C103.245 142.174 97.766 145.359 96.3481 150.696C94.9292 156.034 98.106 161.51 103.444 162.928C111.465 165.06 119.618 166.073 127.618 166.073C156.821 166.074 183.957 152.549 194.954 130.488Z"
      fill="#FFA96B"/>
    <path
      d="M196.004 226.02C196.004 203.966 178.061 186.023 156.007 186.023C133.953 186.023 116.01 203.966 116.01 226.02C116.01 248.075 133.953 266.017 156.007 266.017C178.061 266.017 196.004 248.075 196.004 226.02ZM156.007 246.019C144.98 246.019 136.008 237.047 136.008 226.02C136.008 214.993 144.98 206.022 156.007 206.022C167.034 206.022 176.006 214.993 176.006 226.02C176.006 237.047 167.034 246.019 156.007 246.019Z"
      fill="#FFA96B"/>
    <path
      d="M329.256 356.558C288.177 342.391 223.824 342.391 182.745 356.558C177.524 358.358 174.753 364.049 176.554 369.271C178.353 374.492 184.045 377.265 189.267 375.463C226.063 362.772 285.94 362.772 322.736 375.463C323.816 375.836 324.916 376.013 325.998 376.013C330.145 376.012 334.021 373.411 335.449 369.271C337.248 364.049 334.475 358.358 329.256 356.558Z"
      fill="#FFA96B"/>
  </g>
  <defs>
    <clipPath id="clip0">
      <rect width="512" height="512" fill="white"/>
    </clipPath>
  </defs>
</svg>
