<svg width="512" height="512" viewBox="0 0 512 512" fill="none" xmlns="http://www.w3.org/2000/svg">
  <g clip-path="url(#clip0)">
    <path
      d="M92.7395 41.8143C187 -0.55671 324.999 -0.55671 419.26 41.8133C430.34 46.794 439.094 55.7693 443.884 66.9335C486.686 166.701 486.685 313.343 443.882 413.109C439.093 424.27 430.341 433.245 419.263 438.224C325.001 480.596 186.998 480.596 92.7365 438.224C81.6583 433.245 72.9059 424.271 68.1172 413.109C25.3152 313.342 25.3142 166.699 68.1172 66.9315C72.9069 55.7683 81.6603 46.794 92.7395 41.8143V41.8143Z"
      fill="#FFBDBC"/>
    <path d="M156.007 276.017C178.097 276.017 196.004 258.109 196.004 236.02C196.004 213.93 178.097 196.022 156.007 196.022C133.917 196.022 116.01 213.93 116.01 236.02C116.01 258.109 133.917 276.017 156.007 276.017Z" fill="#FFDEDE"/>
    <path d="M355.993 276.017C378.083 276.017 395.99 258.109 395.99 236.02C395.99 213.93 378.083 196.022 355.993 196.022C333.903 196.022 315.996 213.93 315.996 236.02C315.996 258.109 333.903 276.017 355.993 276.017Z" fill="#FFDEDE"/>
    <path d="M320.995 452.004C317.286 480.141 289.602 502.001 256 502.001C222.398 502.001 194.714 480.141 191.005 452.004" fill="#FFBDBC"/>
    <path
      d="M131.687 294.247C147.581 283.284 174.434 283.284 190.328 294.247C192.061 295.442 194.038 296.016 195.996 296.016C199.173 296.016 202.297 294.506 204.236 291.694C207.371 287.148 206.229 280.921 201.682 277.786C198.316 275.464 194.663 273.494 190.818 271.858C200.174 262.768 206.004 250.066 206.004 236.021C206.004 208.453 183.575 186.024 156.007 186.024C128.439 186.024 106.011 208.453 106.011 236.021C106.011 251.776 113.343 265.843 124.766 275.014C123.241 275.877 121.761 276.801 120.332 277.787C115.785 280.922 114.643 287.149 117.778 291.695C120.914 296.239 127.14 297.382 131.687 294.247V294.247ZM156.007 206.022C172.548 206.022 186.005 219.479 186.005 236.02C186.005 252.56 172.548 266.018 156.007 266.018C139.466 266.018 126.009 252.56 126.009 236.02C126.009 219.479 139.466 206.022 156.007 206.022Z"
      fill="#FF7B79"/>
    <path
      d="M410.557 119.125C373.248 109.207 333.055 123.461 319.045 151.565C316.582 156.506 318.591 162.511 323.533 164.975C324.966 165.689 326.487 166.027 327.986 166.027C331.659 166.027 335.193 163.997 336.943 160.486C346.542 141.228 377.896 131.138 405.419 138.452C410.754 139.873 416.233 136.694 417.651 131.356C419.072 126.018 415.895 120.543 410.557 119.125V119.125Z"
      fill="#FF7B79"/>
    <path
      d="M177.056 160.486C178.805 163.997 182.34 166.027 186.013 166.027C187.512 166.027 189.034 165.689 190.466 164.975C195.408 162.511 197.417 156.506 194.954 151.565C180.944 123.46 140.747 109.208 103.442 119.125C98.1041 120.543 94.9273 126.019 96.3462 131.356C97.7651 136.695 103.247 139.875 108.577 138.452C136.101 131.136 167.457 141.229 177.056 160.486Z"
      fill="#FF7B79"/>
    <path
      d="M405.989 236.02C405.989 208.452 383.561 186.023 355.993 186.023C328.425 186.023 305.996 208.452 305.996 236.02C305.996 250.065 311.826 262.767 321.182 271.857C317.337 273.493 313.684 275.463 310.318 277.785C305.771 280.92 304.63 287.147 307.764 291.693C310.9 296.239 317.126 297.381 321.672 294.247C337.566 283.284 364.419 283.284 380.313 294.247C382.046 295.442 384.024 296.016 385.982 296.016C389.159 296.016 392.282 294.506 394.221 291.694C397.357 287.148 396.214 280.921 391.667 277.786C390.238 276.8 388.758 275.876 387.233 275.013C398.657 265.842 405.989 251.775 405.989 236.02V236.02ZM355.993 206.022C372.534 206.022 385.991 219.479 385.991 236.02C385.991 252.56 372.534 266.018 355.993 266.018C339.452 266.018 325.995 252.56 325.995 236.02C325.995 219.479 339.452 206.022 355.993 206.022Z"
      fill="#FF7B79"/>
    <path
      d="M453.072 62.9918C447.266 49.4568 436.713 38.6955 423.358 32.692C326.385 -10.897 185.613 -10.898 88.6398 32.693C75.2867 38.6955 64.7345 49.4558 58.9289 62.9898C14.919 165.569 14.919 314.472 58.9279 417.051C64.7335 430.583 75.2837 441.341 88.6378 447.345C118.058 460.57 151.65 469.94 188.498 475.231C200.932 497.191 226.671 512 256 512C285.329 512 311.068 497.191 323.502 475.231C360.35 469.94 393.942 460.569 423.363 447.345C436.716 441.341 447.267 430.583 453.071 417.051C497.081 314.474 497.081 165.571 453.072 62.9918V62.9918ZM434.692 409.166C430.869 418.081 423.932 425.161 415.164 429.103C390.154 440.345 361.829 448.651 330.822 453.857C330.848 453.673 330.885 453.493 330.909 453.31C331.631 447.836 327.777 442.812 322.302 442.09C316.824 441.362 311.804 445.222 311.082 450.697C307.978 474.244 284.297 492.001 256 492.001C227.703 492.001 204.023 474.244 200.918 450.697C200.197 445.221 195.175 441.362 189.698 442.09C184.222 442.812 180.369 447.836 181.091 453.31C181.115 453.494 181.152 453.674 181.178 453.857C150.172 448.65 121.846 440.345 96.8372 429.103C88.0668 425.161 81.1313 418.081 77.3066 409.166C57.128 362.132 46.0148 302.062 46.0148 240.02C46.0148 177.979 57.128 117.909 77.3076 70.8743C81.1323 61.9579 88.0688 54.8764 96.8382 50.9347C141.166 31.0091 197.69 20.0358 255.999 20.0358C314.308 20.0358 370.832 31.0091 415.159 50.9337C423.93 54.8764 430.869 61.9589 434.693 70.8763C454.873 117.911 465.985 177.981 465.985 240.021C465.985 302.063 454.872 362.133 434.692 409.166V409.166Z"
      fill="#FF7B79"/>
    <path
      d="M353.064 328.942C349.158 325.038 342.829 325.038 338.922 328.942L315.995 351.87L293.067 328.942C289.162 325.038 282.832 325.038 278.925 328.942L255.998 351.87L233.071 328.942C229.165 325.038 222.835 325.038 218.929 328.942L196.001 351.87L173.074 328.942C169.168 325.038 162.839 325.038 158.932 328.942L128.934 358.94C125.029 362.845 125.029 369.176 128.934 373.082C132.84 376.986 139.169 376.986 143.076 373.082L166.003 350.155L188.931 373.082C192.836 376.986 199.166 376.986 203.073 373.082L226 350.155L248.928 373.082C252.833 376.986 259.163 376.986 263.07 373.082L285.997 350.155L308.924 373.082C312.83 376.986 319.16 376.986 323.066 373.082L345.994 350.155L368.921 373.082C370.874 375.034 373.433 376.011 375.992 376.011C378.55 376.011 381.109 375.034 383.062 373.082C386.967 369.177 386.967 362.846 383.062 358.94L353.064 328.942Z"
      fill="#FF7B79"/>
  </g>
  <defs>
    <clipPath id="clip0">
      <rect width="512" height="512" fill="white"/>
    </clipPath>
  </defs>
</svg>
