<svg width="512" height="512" viewBox="0 0 512 512" fill="none" xmlns="http://www.w3.org/2000/svg">
  <path
    d="M92.7385 41.8133C186.999 -0.557708 324.998 -0.557711 419.259 41.8123C430.339 46.793 439.093 55.7683 443.883 66.9325C486.685 166.7 486.684 313.342 443.881 413.108C439.092 424.269 430.34 433.244 419.262 438.223C325 480.595 186.997 480.595 92.7355 438.223C81.6573 433.244 72.9049 424.27 68.1163 413.108C25.3143 313.342 25.3143 166.699 68.1173 66.9315C72.9059 55.7683 81.6603 46.794 92.7385 41.8133V41.8133Z"
    fill="#B8ECBC"/>
  <path d="M320.995 452.004C317.286 480.141 289.602 502.001 256 502.001C222.398 502.001 194.714 480.141 191.005 452.004" fill="#B8ECBC"/>
  <path d="M156.007 256.018C172.574 256.018 186.005 242.588 186.005 226.02C186.005 209.453 172.574 196.022 156.007 196.022C139.44 196.022 126.009 209.453 126.009 226.02C126.009 242.588 139.44 256.018 156.007 256.018Z" fill="#E7F9E9"/>
  <path d="M355.993 256.018C372.56 256.018 385.991 242.588 385.991 226.02C385.991 209.453 372.56 196.022 355.993 196.022C339.426 196.022 325.995 209.453 325.995 226.02C325.995 242.588 339.426 256.018 355.993 256.018Z" fill="#E7F9E9"/>
  <path
    d="M453.072 62.9908C447.266 49.4558 436.713 38.6955 423.358 32.693C326.385 -10.897 185.613 -10.897 88.6398 32.694C75.2867 38.6965 64.7345 49.4558 58.9289 62.9888C14.919 165.568 14.919 314.473 58.9289 417.051C64.7345 430.583 75.2837 441.341 88.6378 447.344C118.059 460.569 151.652 469.94 188.498 475.23C200.932 497.19 226.672 511.999 256 511.999C285.328 511.999 311.068 497.19 323.502 475.23C360.348 469.94 393.94 460.569 423.363 447.343C436.716 441.34 447.266 430.582 453.071 417.05C497.08 314.474 497.08 165.571 453.072 62.9908V62.9908ZM434.693 409.165C430.869 418.08 423.932 425.161 415.164 429.103C390.153 440.345 361.827 448.651 330.822 453.857C330.848 453.674 330.885 453.494 330.909 453.31C331.631 447.835 327.777 442.811 322.302 442.09C316.824 441.369 311.804 445.222 311.082 450.697C307.978 474.244 284.297 492.001 256 492.001C227.703 492.001 204.023 474.244 200.918 450.697C200.196 445.222 195.168 441.369 189.698 442.09C184.222 442.812 180.369 447.836 181.091 453.31C181.115 453.494 181.152 453.674 181.178 453.857C150.173 448.651 121.848 440.345 96.8372 429.103C88.0668 425.16 81.1313 418.08 77.3066 409.165C57.128 362.132 46.0148 302.061 46.0148 240.019C46.0148 177.979 57.128 117.907 77.3076 70.8723C81.1313 61.9559 88.0688 54.8754 96.8382 50.9337C141.166 31.0081 197.689 20.0338 255.999 20.0338C314.308 20.0338 370.832 31.0071 415.16 50.9327C423.93 54.8754 430.868 61.9569 434.693 70.8753C454.873 117.91 465.985 177.98 465.985 240.021C465.985 302.063 454.872 362.133 434.693 409.165V409.165Z"
    fill="#7DD9C2"/>
  <path
    d="M196.004 226.02C196.004 215.627 192.017 206.149 185.495 199.029C189.092 197.451 192.515 195.582 195.682 193.396C200.229 190.26 201.371 184.033 198.236 179.487C195.099 174.942 188.874 173.798 184.328 176.934C168.434 187.896 141.581 187.896 125.687 176.934C121.142 173.797 114.914 174.942 111.779 179.487C108.643 184.032 109.786 190.26 114.333 193.396C117.924 195.873 121.836 197.958 125.967 199.655C119.777 206.701 116.01 215.926 116.01 226.019C116.01 248.074 133.953 266.017 156.007 266.017C178.062 266.017 196.004 248.075 196.004 226.02V226.02ZM156.007 246.019C144.98 246.019 136.008 237.048 136.008 226.02C136.008 214.993 144.98 206.022 156.007 206.022C167.034 206.022 176.006 214.993 176.006 226.02C176.006 237.048 167.034 246.019 156.007 246.019Z"
    fill="#7DD9C2"/>
  <path
    d="M384.313 176.934C368.419 187.896 341.566 187.896 325.672 176.934C321.126 173.797 314.899 174.942 311.764 179.487C308.628 184.032 309.771 190.26 314.318 193.396C317.909 195.873 321.821 197.958 325.952 199.655C319.762 206.701 315.995 215.926 315.995 226.019C315.995 248.074 333.938 266.017 355.992 266.017C378.046 266.017 395.989 248.074 395.989 226.019C395.989 215.626 392.001 206.148 385.48 199.028C389.077 197.45 392.5 195.581 395.667 193.395C400.214 190.259 401.356 184.032 398.221 179.486C395.085 174.942 388.859 173.799 384.313 176.934V176.934ZM355.993 246.019C344.966 246.019 335.994 237.048 335.994 226.02C335.994 214.993 344.966 206.022 355.993 206.022C367.02 206.022 375.992 214.993 375.992 226.02C375.992 237.048 367.02 246.019 355.993 246.019Z"
    fill="#7DD9C2"/>
  <path
    d="M351.27 324.507C355.961 321.593 357.401 315.427 354.487 310.737C351.573 306.048 345.41 304.606 340.717 307.521C328.42 315.161 320.407 325.047 317.376 336.013H194.624C191.594 325.046 183.58 315.161 171.283 307.521C166.594 304.607 160.427 306.047 157.513 310.737C154.599 315.428 156.038 321.594 160.73 324.507C170.581 330.628 176.006 338.265 176.006 346.012C176.006 353.758 170.58 361.396 160.73 367.516C156.039 370.431 154.599 376.597 157.513 381.286C159.408 384.334 162.673 386.01 166.016 386.01C167.817 386.01 169.641 385.523 171.284 384.503C183.581 376.863 191.595 366.976 194.625 356.011H317.376C320.407 366.977 328.42 376.863 340.717 384.503C342.36 385.524 344.183 386.01 345.985 386.01C349.327 386.01 352.594 384.334 354.488 381.286C357.402 376.596 355.963 370.43 351.271 367.516C341.42 361.396 335.995 353.758 335.995 346.012C335.995 338.265 341.42 330.628 351.27 324.507Z"
    fill="#7DD9C2"/>
</svg>
