<svg width="512" height="512" viewBox="0 0 512 512" fill="none" xmlns="http://www.w3.org/2000/svg">
  <g clip-path="url(#clip0)">
    <path
      d="M92.7385 41.8131C186.999 -0.557952 324.998 -0.557955 419.259 41.8121C430.339 46.7927 439.093 55.7681 443.883 66.9323C486.685 166.699 486.684 313.342 443.881 413.108C439.092 424.269 430.34 433.244 419.262 438.223C325 480.595 186.997 480.595 92.7355 438.223C81.6573 433.244 72.9049 424.27 68.1163 413.108C25.3143 313.342 25.3143 166.698 68.1173 66.9313C72.9059 55.7681 81.6603 46.7937 92.7385 41.8131V41.8131Z"
      fill="#FFF2A0"/>
    <path d="M320.995 452.004C317.286 480.141 289.602 502.001 256 502.001C222.398 502.001 194.714 480.141 191.005 452.004" fill="#FFF2A0"/>
    <path d="M405.99 166.024V206.022C405.99 239.156 379.128 266.017 345.994 266.017C312.859 266.017 285.998 239.156 285.998 206.022V166.024C319.133 152.691 372.855 152.691 405.99 166.024Z" fill="#CCF5FC"/>
    <path d="M226.002 166.024V206.022C226.002 239.156 199.141 266.017 166.007 266.017C132.872 266.017 106.011 239.156 106.011 206.022V166.024C139.145 152.691 192.868 152.691 226.002 166.024Z" fill="#CCF5FC"/>
    <path d="M335.994 316.014C335.994 360.194 300.18 396.008 256 396.008C211.82 396.008 176.006 360.194 176.006 316.014C220.186 302.681 291.814 302.681 335.994 316.014Z" fill="#FFBDBC"/>
    <path d="M335.994 316.014C335.994 329.553 332.625 342.312 326.675 353.491C285.478 343.522 226.522 343.522 185.325 353.491C179.375 342.312 176.006 329.553 176.006 316.014C220.183 302.684 291.817 302.684 335.994 316.014Z" fill="white"/>
    <path
      d="M453.072 62.9906C447.266 49.4555 436.713 38.6943 423.358 32.6907C326.385 -10.8982 185.615 -10.8982 88.6388 32.6917C75.2858 38.6943 64.7335 49.4545 58.9279 62.9886C14.919 165.566 14.919 314.471 58.9289 417.05C64.7345 430.582 75.2848 441.341 88.6369 447.344C118.058 460.568 151.649 469.939 188.498 475.231C200.932 497.191 226.672 511.999 256 511.999C285.329 511.999 311.068 497.19 323.502 475.23C360.35 469.939 393.941 460.568 423.363 447.344C436.716 441.34 447.267 430.582 453.071 417.05C497.081 314.473 497.081 165.569 453.072 62.9906V62.9906ZM434.693 409.166C430.869 418.081 423.932 425.161 415.164 429.103C390.154 440.345 361.829 448.65 330.822 453.857C330.848 453.673 330.885 453.493 330.909 453.31C331.631 447.836 327.777 442.812 322.302 442.09C316.829 441.363 311.804 445.222 311.082 450.696C307.978 474.244 284.297 492 256 492C227.703 492 204.023 474.244 200.918 450.696C200.196 445.221 195.168 441.363 189.698 442.09C184.222 442.812 180.369 447.836 181.091 453.31C181.115 453.494 181.152 453.674 181.178 453.857C150.173 448.649 121.847 440.345 96.8373 429.103C88.0679 425.161 81.1324 418.081 77.3077 409.166C57.1281 362.132 46.0159 302.062 46.0149 240.02C46.0149 177.978 57.1281 117.909 77.3066 70.874C81.1324 61.9576 88.0689 54.8761 96.8393 50.9344C141.167 31.0088 197.69 20.0356 255.999 20.0356C314.308 20.0356 370.832 31.0088 415.159 50.9334C423.93 54.8761 430.869 61.9586 434.694 70.876C454.873 117.911 465.985 177.98 465.985 240.021C465.985 302.062 454.872 362.133 434.693 409.166V409.166Z"
      fill="#FFA96B"/>
    <path
      d="M435.987 186.023H415.989V166.024C415.989 161.943 413.509 158.271 409.721 156.748C374.209 142.459 318.702 142.377 282.941 156.489C275.828 149.993 266.368 146.026 255.999 146.026C245.63 146.026 236.171 149.993 229.057 156.488C193.294 142.377 137.79 142.459 102.277 156.747C98.4902 158.27 96.0103 161.942 96.0103 166.023V186.022H76.0117C70.4891 186.022 66.0125 190.5 66.0125 196.021C66.0125 201.543 70.4891 206.021 76.0117 206.021H96.0103C96.0103 244.617 127.41 276.016 166.005 276.016C204.601 276.016 236 244.617 236 206.021V186.022C236 174.995 244.972 166.023 255.999 166.023C267.026 166.023 275.998 174.995 275.998 186.022V206.021C275.998 244.617 307.397 276.016 345.993 276.016C384.588 276.016 415.988 244.617 415.988 206.021H435.986C441.508 206.021 445.986 201.543 445.986 196.021C445.986 190.5 441.509 186.023 435.987 186.023V186.023ZM216.003 206.022C216.003 233.59 193.574 256.018 166.006 256.018C138.438 256.018 116.01 233.59 116.01 206.022V173.043C144.744 163.783 187.269 163.783 216.003 173.043V206.022ZM395.99 206.022C395.99 233.59 373.562 256.018 345.994 256.018C318.426 256.018 295.997 233.59 295.997 206.022V173.043C324.731 163.783 367.256 163.783 395.99 173.043V206.022Z"
      fill="#FFA96B"/>
    <path
      d="M338.883 306.44C293.182 292.649 218.82 292.649 173.117 306.44C168.895 307.713 166.006 311.603 166.006 316.013C166.006 365.635 206.378 406.006 256 406.006C305.623 406.006 345.994 365.635 345.994 316.013C345.994 311.603 343.105 307.714 338.883 306.44V306.44ZM256 386.009C219.94 386.009 190.161 358.601 186.405 323.52C226.616 313.447 285.384 313.447 325.596 323.52C321.839 358.6 292.06 386.009 256 386.009Z"
      fill="#FFA96B"/>
  </g>
  <defs>
    <clipPath id="clip0">
      <rect width="512" height="512" fill="white"/>
    </clipPath>
  </defs>
</svg>
