<svg width="512" height="512" viewBox="0 0 512 512" fill="none" xmlns="http://www.w3.org/2000/svg">
  <path
    d="M92.7384 41.8131C186.999 -0.557952 324.998 -0.557955 419.258 41.8121C430.339 46.7927 439.093 55.7681 443.883 66.9323C486.685 166.699 486.684 313.342 443.881 413.108C439.092 424.269 430.34 433.244 419.261 438.223C325 480.595 186.997 480.595 92.7354 438.223C81.6572 433.244 72.9048 424.27 68.1161 413.108C25.3141 313.342 25.3141 166.698 68.1171 66.9313C72.9058 55.7681 81.6602 46.7937 92.7384 41.8131V41.8131Z"
    fill="#FFF2A0"/>
  <path d="M320.995 452.004C317.286 480.141 289.602 502.001 256 502.001C222.398 502.001 194.714 480.141 191.005 452.004" fill="#FFF2A0"/>
  <path
    d="M453.072 62.9906C447.266 49.4555 436.713 38.6953 423.358 32.6927C326.385 -10.8972 185.613 -10.8972 88.6397 32.6937C75.2867 38.6963 64.7344 49.4555 58.9288 62.9886C14.9189 165.567 14.9189 314.473 58.9288 417.051C64.7344 430.583 75.2837 441.341 88.6377 447.344C118.059 460.569 151.652 469.94 188.498 475.23C200.932 497.19 226.672 511.999 256 511.999C285.328 511.999 311.068 497.19 323.502 475.23C360.348 469.94 393.94 460.569 423.363 447.343C436.716 441.34 447.265 430.582 453.071 417.05C497.08 314.474 497.08 165.57 453.072 62.9906V62.9906ZM434.693 409.165C430.869 418.08 423.932 425.161 415.164 429.103C390.153 440.345 361.827 448.65 330.822 453.857C330.848 453.674 330.885 453.494 330.909 453.31C331.631 447.835 327.777 442.811 322.302 442.09C316.824 441.368 311.804 445.221 311.082 450.696C307.978 474.244 284.297 492 256 492C227.703 492 204.023 474.244 200.918 450.696C200.196 445.221 195.168 441.368 189.698 442.09C184.222 442.812 180.369 447.836 181.091 453.31C181.115 453.494 181.152 453.674 181.178 453.857C150.173 448.65 121.848 440.345 96.8372 429.103C88.0668 425.16 81.1313 418.08 77.3065 409.165C57.1279 362.132 46.0147 302.061 46.0147 240.019C46.0147 177.978 57.1279 117.907 77.3075 70.872C81.1313 61.9556 88.0688 54.8751 96.8382 50.9334C141.166 31.0078 197.689 20.0336 255.999 20.0336C314.308 20.0336 370.832 31.0068 415.16 50.9324C423.93 54.8751 430.868 61.9566 434.693 70.875C454.873 117.91 465.985 177.979 465.985 240.021C465.985 302.063 454.872 362.133 434.693 409.165V409.165Z"
    fill="#FFA96B"/>
  <path
    d="M181.005 236.019C181.005 241.542 185.483 246.019 191.005 246.019C196.526 246.019 201.004 241.542 201.004 236.019C201.004 208.451 180.818 186.023 156.007 186.023C131.196 186.023 111.01 208.451 111.01 236.019C111.01 241.542 115.488 246.019 121.009 246.019C126.531 246.019 131.009 241.542 131.009 236.019C131.009 219.479 142.223 206.022 156.007 206.022C169.791 206.022 181.005 219.479 181.005 236.019Z"
    fill="#FFA96B"/>
  <path
    d="M355.993 186.023C331.182 186.023 310.996 208.451 310.996 236.019C310.996 241.542 315.474 246.019 320.995 246.019C326.517 246.019 330.995 241.542 330.995 236.019C330.995 219.479 342.209 206.022 355.993 206.022C369.777 206.022 380.991 219.479 380.991 236.019C380.991 241.542 385.469 246.019 390.99 246.019C396.512 246.019 400.99 241.542 400.99 236.019C400.99 208.45 380.804 186.023 355.993 186.023Z"
    fill="#FFA96B"/>
  <path
    d="M114.96 160.486C124.558 141.229 155.914 131.137 183.436 138.451C188.769 139.868 194.249 136.693 195.667 131.356C197.086 126.019 193.909 120.543 188.572 119.124C151.263 109.209 111.069 123.459 97.0592 151.563C94.5963 156.506 96.6052 162.51 101.548 164.973C102.981 165.687 104.502 166.026 106.001 166.026C109.675 166.026 113.21 163.995 114.96 160.486V160.486Z"
    fill="#FFA96B"/>
  <path
    d="M325.426 119.124C320.088 120.542 316.912 126.019 318.331 131.356C319.749 136.693 325.228 139.869 330.562 138.451C358.083 131.138 389.441 141.228 399.038 160.486C400.788 163.995 404.322 166.026 407.995 166.026C409.494 166.026 411.016 165.687 412.448 164.973C417.391 162.51 419.399 156.506 416.937 151.563C402.929 123.459 362.73 109.209 325.426 119.124Z"
    fill="#FFA96B"/>
  <path
    d="M342.374 333.713C346.627 330.19 347.218 323.885 343.694 319.633C340.172 315.382 333.869 314.788 329.615 318.312C322.086 324.549 317.469 332.671 316.3 341.53C299.821 357.333 278.549 366.009 256 366.009C233.451 366.009 212.178 357.333 195.7 341.53C194.532 332.671 189.915 324.548 182.385 318.312C178.13 314.789 171.827 315.381 168.306 319.633C164.783 323.885 165.373 330.189 169.626 333.713C173.74 337.12 176.006 341.488 176.006 346.011C176.006 350.533 173.74 354.901 169.626 358.309C165.373 361.832 164.782 368.136 168.306 372.389C170.284 374.776 173.136 376.01 176.012 376.01C178.258 376.01 180.519 375.256 182.385 373.71C185.906 370.793 188.781 367.459 190.976 363.836C209.664 378.228 232.248 386.008 256 386.008C279.752 386.008 302.336 378.227 321.024 363.836C323.219 367.459 326.094 370.793 329.615 373.71C331.481 375.256 333.741 376.01 335.988 376.01C338.863 376.01 341.717 374.776 343.694 372.389C347.217 368.136 346.627 361.833 342.374 358.309C338.26 354.901 335.994 350.533 335.994 346.011C335.994 341.488 338.259 337.121 342.374 333.713V333.713Z"
    fill="#FFA96B"/>
  <path d="M116.01 356.011C132.577 356.011 146.008 342.58 146.008 326.013C146.008 309.446 132.577 296.015 116.01 296.015C99.4425 296.015 86.012 309.446 86.012 326.013C86.012 342.58 99.4425 356.011 116.01 356.011Z" fill="#FFFBDF"/>
  <path d="M395.99 356.011C412.558 356.011 425.988 342.58 425.988 326.013C425.988 309.446 412.558 296.015 395.99 296.015C379.423 296.015 365.992 309.446 365.992 326.013C365.992 342.58 379.423 356.011 395.99 356.011Z" fill="#FFFBDF"/>
</svg>
