<svg id="Layer_1" enable-background="new 0 0 512.042 512.042" height="512" viewBox="0 0 512.042 512.042" width="512" xmlns="http://www.w3.org/2000/svg"><g><g><g><path d="m403.471 343.985h40.363c18.263 0 34.206-12.375 38.736-30.067 6.476-25.291-12.628-49.904-38.736-49.904h-20.363 40.84c18.263 0 34.206-12.374 38.736-30.067l.183-.713c6.493-25.357-12.723-50.009-38.898-49.904-9.732.039-20.107.069-30.439.08-44.183.047-114.009.093-144.145.093v-141.117c0-35.59-49.125-48.343-66.636-17.23l-103.103 211.613v207.929l28.579 26.481c23.436 21.413 54.122 33.299 85.972 33.299 63.262 0 119.887-.254 168.052-.083 18.32.065 34.34-12.319 38.884-30.066l.12-.468c6.476-25.291-12.628-49.904-38.736-49.904h-9.409 29.886c18.263 0 34.206-12.375 38.736-30.067 6.476-25.291-12.628-49.904-38.736-49.904h-19.886z" fill="#ffdbd3"/><g fill="#ffd1c7"><path d="m249.748 42.386v141.118c9.852 0 23.947-.005 40-.013v-141.105c0-29.822-34.492-43.609-55.975-28.99 9.303 5.86 15.975 15.874 15.975 28.99z"/><path d="m390.395 431.214c.066 2.3.917 4.514 2.44 6.239 8.372 9.481 12.254 22.847 8.782 36.407l-.12.468c-4.351 16.994-19.224 29.069-36.562 30.007 13.074 0 25.647.016 37.69.059 18.317.065 34.329-12.322 38.872-30.066l.12-.468c6.476-25.291-12.628-49.904-38.736-49.904h20.703c18.214 0 34.092-12.396 38.509-30.067 6.476-25.291-12.628-49.904-38.736-49.904h20.477c18.263 0 34.206-12.375 38.736-30.067 6.476-25.291-12.628-49.904-38.736-49.904h20.477c18.264 0 34.207-12.376 38.736-30.069l.182-.711c6.491-25.358-12.725-50.009-38.9-49.904-9.732.039-20.106.07-30.436.08-2.178.002-4.419.005-6.714.007 24.701 1.615 42.306 25.388 36.051 49.816l-.183.713c-4.53 17.692-20.473 30.067-38.736 30.067l-.658 5.231c14.96 8.56 23.586 26.44 18.917 44.673-4.53 17.693-20.472 30.067-38.736 30.067l-.109 5.551c14.621 8.68 22.979 26.344 18.368 44.352-3.362 13.13-13.009 23.331-25.225 27.719-4.009 1.442-6.595 5.349-6.473 9.608z"/></g><g><g><g><path d="m67.711 504.522c-33.254 0-60.211-26.958-60.211-60.211v-207.066c0-33.254 26.958-60.211 60.211-60.211 33.254 0 60.211 26.958 60.211 60.211v207.066c.001 33.254-26.957 60.211-60.211 60.211z" fill="#a6f5cf"/><path d="m67.711 177.034c-7.011 0-13.742 1.198-20 3.401 23.423 8.246 40.211 30.567 40.211 56.81v207.066c0 26.243-16.789 48.564-40.211 56.81 6.258 2.203 12.989 3.401 20 3.401 33.254 0 60.211-26.958 60.211-60.211v-207.066c.001-33.253-26.957-60.211-60.211-60.211z" fill="#8aedbd"/><ellipse cx="67.711" cy="442.86" fill="#fff" rx="21.07" ry="20.919"/></g></g></g></g><g><ellipse cx="400.415" cy="76.864" fill="#a6f5cf" rx="69.194" ry="69.342"/></g></g><g><path d="m501.947 194.123c-9.068-11.634-22.706-18.293-37.447-18.293-55.75 0-111.501.163-167.251.173v-133.617c0-19.686-12.656-35.722-32.242-40.855-19.396-5.083-38.855 2.934-48.431 19.946-.072.129-.141.26-.206.394l-11.136 22.855c-1.814 3.724-.267 8.213 3.457 10.027 3.724 1.815 8.213.267 10.027-3.457l11.033-22.644c7.649-13.382 21.704-15.167 31.452-12.611 9.708 2.544 21.045 10.971 21.045 26.345v141.118c0 4.142 3.358 7.5 7.5 7.5 58.25 0 116.5-.174 174.749-.174 10.084 0 19.416 4.557 25.619 12.515 6.352 8.15 8.384 18.8 5.665 28.742-3.683 14.382-16.624 24.427-31.47 24.427h-40.84c-9.697 0-9.697 15 0 15h20.363c10.11 0 19.463 4.581 25.662 12.566 6.199 7.986 8.316 18.183 5.808 27.977-3.683 14.382-16.624 24.427-31.47 24.427h-40.363c-9.697 0-9.697 15 0 15h19.886c10.109 0 19.463 4.58 25.662 12.566s8.316 18.184 5.809 27.978c-3.683 14.382-16.624 24.427-31.47 24.427h-29.886c-9.697 0-9.697 15 0 15h9.409c10.11 0 19.463 4.58 25.662 12.566 6.265 8.071 8.311 18.593 5.688 28.445-3.687 14.398-16.618 24.428-31.475 24.428-56.065 0-112.13.083-168.195.083-30.062 0-58.797-11.128-80.875-31.3l-18.399-17.049c.789-12.488.136-25.153.136-37.662 0-9.697-15-9.697-15 0v33.344c0 29.065-23.646 52.711-52.711 52.711s-52.712-23.645-52.712-52.71v-207.066c0-29.065 23.646-52.711 52.711-52.711s52.711 23.646 52.711 52.711v133.812c0 9.697 15 9.697 15 0v-133.812c0-4.298-.403-8.504-1.172-12.582l66.83-137.165c1.814-3.724.267-8.213-3.457-10.027s-8.212-.266-10.027 3.457l-60.406 123.98c-11.494-21.057-33.846-35.374-59.479-35.374-37.336 0-67.711 30.375-67.711 67.711v207.066c0 37.336 30.375 67.711 67.711 67.711 29.781 0 55.133-19.326 64.174-46.095l11.644 10.789c24.887 22.738 57.216 35.261 91.031 35.261 56.065 0 112.131-.083 168.196-.083 21.713 0 40.617-14.662 46.006-35.709 3.95-16.658-.443-34.327-12.883-46.404 16.162-4.412 29.166-17.188 33.479-34.033 4.153-16.221-1.003-34.293-13.002-45.938 16.162-4.412 29.166-17.187 33.479-34.033 4.154-16.224-1.003-34.29-13.002-45.938 16.162-4.412 29.166-17.187 33.479-34.033 4.245-13.791.381-30.461-8.365-41.683z"/><path d="m39.141 442.86c0 15.67 12.816 28.419 28.57 28.419s28.57-12.749 28.57-28.419-12.816-28.419-28.57-28.419-28.57 12.748-28.57 28.419zm42.141 0c0 7.399-6.087 13.419-13.57 13.419s-13.57-6.02-13.57-13.419 6.087-13.419 13.57-13.419 13.57 6.019 13.57 13.419z"/><path d="m400.415 153.706c42.29 0 76.695-34.471 76.695-76.842s-34.405-76.842-76.695-76.842-76.695 34.471-76.695 76.842 34.405 76.842 76.695 76.842zm0-138.684c34.019 0 61.695 27.742 61.695 61.842s-27.676 61.842-61.695 61.842-61.694-27.742-61.694-61.842c-.001-34.1 27.675-61.842 61.694-61.842z"/><path d="m365.249 74.777c4.142 0 7.5-3.358 7.5-7.5 0-2.217 1.792-4.02 3.995-4.02s3.996 1.803 3.996 4.02c0 4.142 3.358 7.5 7.5 7.5s7.5-3.358 7.5-7.5c0-10.488-8.521-19.02-18.996-19.02s-18.995 8.532-18.995 19.02c0 4.142 3.357 7.5 7.5 7.5z"/><path d="m411.616 74.777c4.142 0 7.5-3.358 7.5-7.5 0-2.217 1.792-4.02 3.996-4.02s3.996 1.803 3.996 4.02c0 4.142 3.358 7.5 7.5 7.5s7.5-3.358 7.5-7.5c0-10.488-8.521-19.02-18.996-19.02s-18.996 8.532-18.996 19.02c0 4.142 3.358 7.5 7.5 7.5z"/><path d="m369.642 93.808c-2.932 2.926-2.937 7.675-.011 10.607 8.228 8.245 19.16 12.786 30.784 12.786 11.625 0 22.557-4.541 30.785-12.786 2.926-2.932 2.92-7.681-.012-10.607s-7.681-2.921-10.606.011c-5.393 5.405-12.555 8.381-20.167 8.381-7.611 0-14.773-2.977-20.166-8.381-2.927-2.931-7.674-2.936-10.607-.011z"/></g></g></svg>